<svg width="389" height="54" viewBox="0 0 389 54" fill="none" xmlns="http://www.w3.org/2000/svg">
<g clip-path="url(#clip0_20_277)">
<path d="M48.7005 48.6952C57.0616 40.3341 54.1174 23.8338 42.1244 11.8408C30.1314 -0.152164 13.6311 -3.09638 5.27002 5.26474C-3.09111 13.6259 -0.146893 30.1261 11.8461 42.1191C23.8391 54.1121 40.3394 57.0564 48.7005 48.6952Z" stroke="black" stroke-miterlimit="10"/>
<path d="M48.6579 48.6528C57.0385 40.2722 54.1291 23.7751 42.1595 11.8055C30.19 -0.164079 13.6929 -3.07347 5.31221 5.30718C-3.06845 13.6878 -0.159052 30.1849 11.8105 42.1545C23.7801 54.1241 40.2772 57.0335 48.6579 48.6528Z" stroke="#010101" stroke-miterlimit="10"/>
<path d="M48.6154 48.6104C57.0117 40.2141 54.134 23.7233 42.1878 11.7772C30.2417 -0.168964 13.7509 -3.0467 5.35465 5.34957C-3.04162 13.7458 -0.163886 30.2366 11.7823 42.1828C23.7284 54.1289 40.2192 57.0066 48.6154 48.6104Z" stroke="#020202" stroke-miterlimit="10"/>
<path d="M48.5662 48.5609C56.9781 40.149 54.1352 23.6677 42.2164 11.7489C30.2976 -0.169905 13.8163 -3.01281 5.40442 5.39908C-3.00747 13.811 -0.164562 30.2923 11.7542 42.2111C23.673 54.1299 40.1543 56.9728 48.5662 48.5609Z" stroke="#030303" stroke-miterlimit="10"/>
<path d="M48.5238 48.5184C56.9513 40.0909 54.1401 23.616 42.2447 11.7206C30.3493 -0.17476 13.8744 -2.98601 5.44686 5.4415C-2.98065 13.869 -0.169398 30.344 11.726 42.2393C23.6213 54.1347 40.0963 56.946 48.5238 48.5184Z" stroke="#040404" stroke-miterlimit="10"/>
<path d="M48.4814 48.476C56.9245 40.0329 54.1449 23.5643 42.273 11.6923C30.4011 -0.179613 13.9324 -2.95921 5.48931 5.48393C-2.95383 13.9271 -0.174233 30.3957 11.6977 42.2676C23.5696 54.1396 40.0383 56.9192 48.4814 48.476Z" stroke="#050505" stroke-miterlimit="10"/>
<path d="M48.4319 48.4265C56.8946 39.9639 54.153 23.5016 42.3084 11.657C30.4638 -0.187616 14.0015 -2.92922 5.53882 5.53344C-2.92384 13.9961 -0.182234 30.4584 11.6624 42.303C23.507 54.1476 39.9693 56.8892 48.4319 48.4265Z" stroke="#060606" stroke-miterlimit="10"/>
<path d="M48.3895 48.3841C56.8678 39.9058 54.1578 23.4499 42.3367 11.6287C30.5155 -0.192468 14.0595 -2.90241 5.58127 5.57587C-2.89701 14.0541 -0.187067 30.5101 11.6341 42.3313C23.4553 54.1524 39.9112 56.8624 48.3895 48.3841Z" stroke="#070707" stroke-miterlimit="10"/>
<path d="M48.3398 48.3346C56.8337 39.8407 54.1586 23.3943 42.3647 11.6004C30.5709 -0.19341 14.1245 -2.86853 5.63055 5.62537C-2.86335 14.1193 -0.188233 30.5657 11.6056 42.3596C23.3994 54.1534 39.8459 56.8285 48.3398 48.3346Z" stroke="#080808" stroke-miterlimit="10"/>
<path d="M48.2974 48.2922C56.8069 39.7827 54.1635 23.3425 42.393 11.5721C30.6226 -0.198266 14.1825 -2.84173 5.67299 5.6678C-2.83653 14.1773 -0.193068 30.6174 11.5773 42.3879C23.3477 54.1583 39.7879 56.8017 48.2974 48.2922Z" stroke="#090909" stroke-miterlimit="10"/>
<path d="M48.255 48.2498C56.7801 39.7246 54.1683 23.2908 42.4213 11.5439C30.6744 -0.203119 14.2406 -2.81492 5.71544 5.71022C-2.80971 14.2354 -0.197903 30.6692 11.5491 42.4161C23.296 54.1631 39.7298 56.7749 48.255 48.2498Z" stroke="#0A0A0A" stroke-miterlimit="10"/>
<path d="M48.2055 48.2003C56.7502 39.6556 54.1764 23.2281 42.4567 11.5085C30.7371 -0.211153 14.3096 -2.78497 5.76495 5.75971C-2.77972 14.3044 -0.205903 30.7318 11.5137 42.4515C23.2334 54.1711 39.6608 56.7449 48.2055 48.2003Z" stroke="#0B0B0B" stroke-miterlimit="10"/>
<path d="M48.1631 48.1578C56.7234 39.5975 54.1812 23.1764 42.485 11.4802C30.7888 -0.216006 14.3677 -2.75816 5.8074 5.80213C-2.75289 14.3624 -0.210738 30.7836 11.4855 42.4798C23.1817 54.176 39.6028 56.7181 48.1631 48.1578Z" stroke="#0C0C0C" stroke-miterlimit="10"/>
<path d="M48.1207 48.1154C56.6966 39.5395 54.1861 23.1247 42.5133 11.4519C30.8406 -0.220859 14.4258 -2.73136 5.84984 5.84456C-2.72607 14.4205 -0.215573 30.8353 11.4572 42.508C23.13 54.1808 39.5448 56.6913 48.1207 48.1154Z" stroke="#0D0D0D" stroke-miterlimit="10"/>
<path d="M48.071 48.0659C56.6625 39.4744 54.1868 23.0691 42.5414 11.4236C30.896 -0.2218 14.4907 -2.69747 5.89912 5.89406C-2.69241 14.4856 -0.216737 30.8909 11.4287 42.5363C23.0741 54.1818 39.4794 56.6574 48.071 48.0659Z" stroke="#0E0E0E" stroke-miterlimit="10"/>
<path d="M48.0286 48.0235C56.6357 39.4163 54.1917 23.0174 42.5697 11.3953C30.9477 -0.226655 14.5487 -2.67067 5.94157 5.93649C-2.66559 14.5436 -0.221572 30.9426 11.4004 42.5646C23.0224 54.1866 39.4214 56.6306 48.0286 48.0235Z" stroke="#0F0F0F" stroke-miterlimit="10"/>
<path d="M47.9864 47.9811C56.6131 39.3544 54.2039 22.9586 42.6053 11.36C31.0067 -0.238571 14.6109 -2.64776 5.98425 5.97892C-2.64244 14.6056 -0.233243 31.0014 11.3653 42.6C22.9639 54.1985 39.3597 56.6077 47.9864 47.9811Z" stroke="#101010" stroke-miterlimit="10"/>
<path d="M47.9367 47.9316C56.579 39.2893 54.2046 22.903 42.6334 11.3317C31.0621 -0.239512 14.6758 -2.61388 6.03353 6.02842C-2.60878 14.6707 -0.234407 31.057 11.3368 42.6283C22.9081 54.1995 39.2944 56.5739 47.9367 47.9316Z" stroke="#111111" stroke-miterlimit="10"/>
<path d="M47.8943 47.8891C56.5522 39.2312 54.2095 22.8512 42.6617 11.3034C31.1139 -0.244365 14.7339 -2.58708 6.07597 6.07085C-2.58195 14.7288 -0.239242 31.1087 11.3086 42.6566C22.8564 54.2044 39.2363 56.5471 47.8943 47.8891Z" stroke="#121212" stroke-miterlimit="10"/>
<path d="M47.845 47.8396C56.5186 39.1661 54.2107 22.7956 42.6902 11.2751C31.1698 -0.245333 14.7993 -2.55322 6.12574 6.12032C-2.5478 14.7939 -0.239918 31.1643 11.2805 42.6848C22.801 54.2053 39.1715 56.5132 47.845 47.8396Z" stroke="#131313" stroke-miterlimit="10"/>
<path d="M47.8026 47.7972C56.4918 39.108 54.2156 22.7439 42.7185 11.2468C31.2215 -0.250189 14.8574 -2.52642 6.16818 6.16275C-2.52098 14.8519 -0.244753 31.2161 11.2523 42.7131C22.7493 54.2101 39.1135 56.4864 47.8026 47.7972Z" stroke="#141414" stroke-miterlimit="10"/>
<path d="M47.76 47.7548C56.4687 39.0461 54.2273 22.6851 42.7537 11.2115C31.28 -0.262105 14.9191 -2.50351 6.21037 6.20518C-2.49832 14.9139 -0.256913 31.2749 11.2167 42.7485C22.6903 54.2221 39.0513 56.4635 47.76 47.7548Z" stroke="#151515" stroke-miterlimit="10"/>
<path d="M47.7107 47.7053C56.4351 38.981 54.2285 22.6295 42.7822 11.1832C31.3359 -0.263046 14.9845 -2.46962 6.26014 6.25469C-2.46417 14.979 -0.257589 31.3305 11.1887 42.7768C22.6349 54.223 38.9864 56.4296 47.7107 47.7053Z" stroke="#161616" stroke-miterlimit="10"/>
<path d="M47.6683 47.6629C56.4083 38.9229 54.2333 22.5778 42.8105 11.1549C31.3877 -0.267901 15.0425 -2.44282 6.30259 6.29711C-2.43735 15.037 -0.262424 31.3822 11.1604 42.805C22.5832 54.2279 38.9284 56.4028 47.6683 47.6629Z" stroke="#171717" stroke-miterlimit="10"/>
<path d="M47.6259 47.6204C56.3815 38.8649 54.2382 22.5261 42.8388 11.1266C31.4394 -0.272754 15.1006 -2.41602 6.34503 6.33954C-2.41052 15.0951 -0.267258 31.4339 11.1321 42.8333C22.5315 54.2327 38.8704 56.376 47.6259 47.6204Z" stroke="#181818" stroke-miterlimit="10"/>
<path d="M47.5762 47.5709C56.3474 38.7998 54.2389 22.4704 42.8669 11.0984C31.4948 -0.273693 15.1655 -2.38213 6.39431 6.38904C-2.37686 15.1602 -0.268423 31.4895 11.1036 42.8616C22.4757 54.2337 38.805 56.3421 47.5762 47.5709Z" stroke="#191919" stroke-miterlimit="10"/>
<path d="M47.5336 47.5285C56.3243 38.7378 54.2506 22.4117 42.902 11.063C31.5534 -0.285611 15.2272 -2.35922 6.4365 6.43148C-2.3542 15.2222 -0.280582 31.5483 11.0681 42.897C22.4167 54.2456 38.7429 56.3192 47.5336 47.5285Z" stroke="#1A1A1A" stroke-miterlimit="10"/>
<path d="M47.4911 47.4861C56.2975 38.6798 54.2555 22.3599 42.9303 11.0347C31.6051 -0.290464 15.2853 -2.33242 6.47895 6.4739C-2.32737 15.2802 -0.285417 31.6001 11.0398 42.9253C22.365 54.2505 38.6848 56.2924 47.4911 47.4861Z" stroke="#1B1B1B" stroke-miterlimit="10"/>
<path d="M47.4419 47.4366C56.2639 38.6146 54.2567 22.3043 42.9589 11.0064C31.661 -0.291435 15.3507 -2.29857 6.52872 6.52338C-2.29323 15.3453 -0.286093 31.6556 11.0118 42.9535C22.3096 54.2514 38.62 56.2585 47.4419 47.4366Z" stroke="#1C1C1C" stroke-miterlimit="10"/>
<path d="M47.3995 47.3941C56.2371 38.5566 54.2616 22.2526 42.9872 10.9781C31.7127 -0.296291 15.4087 -2.27176 6.57116 6.5658C-2.2664 15.4034 -0.290929 31.7074 10.9835 42.9818C22.2579 54.2562 38.5619 56.2317 47.3995 47.3941Z" stroke="#1D1D1D" stroke-miterlimit="10"/>
<path d="M47.3498 47.3447C56.203 38.4915 54.2623 22.197 43.0152 10.9499C31.7681 -0.29723 15.4736 -2.23788 6.62044 6.61531C-2.23274 15.4685 -0.292093 31.763 10.955 43.0101C22.2021 54.2572 38.4966 56.1978 47.3498 47.3447Z" stroke="#1E1E1E" stroke-miterlimit="10"/>
<path d="M47.3074 47.3022C56.1762 38.4334 54.2672 22.1453 43.0435 10.9216C31.8199 -0.302082 15.5317 -2.21108 6.66289 6.65773C-2.20592 15.5265 -0.296927 31.8147 10.9267 43.0384C22.1504 54.262 38.4386 56.171 47.3074 47.3022Z" stroke="#1F1F1F" stroke-miterlimit="10"/>
<path d="M47.2652 47.2598C56.1535 38.3715 54.2794 22.0865 43.0791 10.8862C31.8789 -0.313999 15.5939 -2.18817 6.70557 6.70016C-2.18277 15.5885 -0.308597 31.8735 10.8916 43.0737C22.0919 54.274 38.3769 56.1481 47.2652 47.2598Z" stroke="#202020" stroke-miterlimit="10"/>
<path d="M47.2155 47.2103C56.1194 38.3064 54.2801 22.0309 43.1072 10.858C31.9343 -0.31494 15.6588 -2.15428 6.75485 6.74967C-2.14911 15.6536 -0.309764 31.9291 10.8631 43.102C22.036 54.2749 38.3115 56.1143 47.2155 47.2103Z" stroke="#212121" stroke-miterlimit="10"/>
<path d="M47.1731 47.1679C56.0927 38.2483 54.285 21.9791 43.1355 10.8297C31.986 -0.319795 15.7169 -2.12748 6.79729 6.79209C-2.12228 15.7117 -0.314598 31.9808 10.8349 43.1303C21.9843 54.2798 38.2535 56.0875 47.1731 47.1679Z" stroke="#222222" stroke-miterlimit="10"/>
<path d="M47.1307 47.1255C56.0659 38.1903 54.2898 21.9274 43.1638 10.8014C32.0378 -0.32465 15.7749 -2.10067 6.83974 6.83452C-2.09546 15.7697 -0.319432 32.0326 10.8066 43.1586C21.9326 54.2846 38.1955 56.0607 47.1307 47.1255Z" stroke="#232323" stroke-miterlimit="10"/>
<path d="M47.0815 47.0759C56.0323 38.1251 54.2911 21.8718 43.1924 10.7731C32.0937 -0.325619 15.8403 -2.06682 6.8895 6.88399C-2.06131 15.8348 -0.320108 32.0882 10.7786 43.1869C21.8773 54.2856 38.1306 56.0268 47.0815 47.0759Z" stroke="#242424" stroke-miterlimit="10"/>
<path d="M47.0388 47.0335C56.0091 38.0632 54.3028 21.813 43.2275 10.7377C32.1522 -0.337537 15.902 -2.04391 6.9317 6.92643C-2.03865 15.8968 -0.332268 32.1469 10.743 43.2222C21.8183 54.2975 38.0684 56.0039 47.0388 47.0335Z" stroke="#252525" stroke-miterlimit="10"/>
<path d="M46.9964 46.9911C55.9823 38.0051 54.3076 21.7613 43.2558 10.7094C32.204 -0.34239 15.9601 -2.01711 6.97414 6.96885C-2.01182 15.9548 -0.337103 32.1987 10.7147 43.2505C21.7666 54.3023 38.0104 55.9771 46.9964 46.9911Z" stroke="#262626" stroke-miterlimit="10"/>
<path d="M46.9467 46.9416C55.9483 37.94 54.3084 21.7057 43.2839 10.6812C32.2594 -0.343329 16.025 -1.98323 7.02342 7.01836C-1.97816 16.0199 -0.338268 32.2543 10.6862 43.2788C21.7107 54.3033 37.9451 55.9432 46.9467 46.9416Z" stroke="#272727" stroke-miterlimit="10"/>
<path d="M46.9043 46.8992C55.9215 37.882 54.3132 21.654 43.3122 10.6529C32.3111 -0.348184 16.0831 -1.95642 7.06586 7.06078C-1.95134 16.078 -0.343102 32.306 10.658 43.3071C21.659 54.3081 37.8871 55.9164 46.9043 46.8992Z" stroke="#282828" stroke-miterlimit="10"/>
<path d="M46.8619 46.8568C55.8947 37.8239 54.3181 21.6022 43.3405 10.6246C32.3628 -0.35304 16.1411 -1.92962 7.10831 7.10321C-1.92452 16.136 -0.347937 32.3577 10.6297 43.3354C21.6073 54.313 37.829 55.8896 46.8619 46.8568Z" stroke="#292929" stroke-miterlimit="10"/>
<path d="M46.8124 46.8073C55.8647 37.7549 54.3261 21.5396 43.3758 10.5893C32.4255 -0.361041 16.2102 -1.89963 7.15782 7.15272C-1.89453 16.2051 -0.355938 32.4204 10.5944 43.3707C21.5447 54.321 37.76 55.8596 46.8124 46.8073Z" stroke="#2A2A2A" stroke-miterlimit="10"/>
<path d="M46.77 46.7648C55.8379 37.6969 54.331 21.4878 43.4041 10.561C32.4773 -0.365896 16.2682 -1.87283 7.20027 7.19515C-1.86771 16.2631 -0.360773 32.4721 10.5661 43.399C21.493 54.3259 37.702 55.8328 46.77 46.7648Z" stroke="#2B2B2B" stroke-miterlimit="10"/>
<path d="M46.7207 46.7154C55.8043 37.6318 54.3322 21.4322 43.4327 10.5327C32.5332 -0.366835 16.3336 -1.83894 7.25004 7.24465C-1.83356 16.3282 -0.361449 32.5278 10.5381 43.4273C21.4376 54.3268 37.6371 55.7989 46.7207 46.7154Z" stroke="#2C2C2C" stroke-miterlimit="10"/>
<path d="M46.6783 46.6729C55.7775 37.5737 54.3371 21.3805 43.461 10.5044C32.5849 -0.371718 16.3917 -1.81217 7.29248 7.28705C-1.80673 16.3863 -0.366283 32.5795 10.5098 43.4556C21.3859 54.3317 37.5791 55.7721 46.6783 46.6729Z" stroke="#2D2D2D" stroke-miterlimit="10"/>
<path d="M46.6359 46.6305C55.7508 37.5157 54.342 21.3288 43.4893 10.4761C32.6366 -0.376543 16.4498 -1.78534 7.33493 7.3295C-1.77991 16.4443 -0.371119 32.6312 10.4816 43.4839C21.3342 54.3365 37.5211 55.7453 46.6359 46.6305Z" stroke="#2E2E2E" stroke-miterlimit="10"/>
<path d="M46.5864 46.581C55.7208 37.4466 54.35 21.2661 43.5247 10.4408C32.6993 -0.384575 16.5188 -1.75538 7.38444 7.37899C-1.74992 16.5133 -0.379119 32.6939 10.4462 43.5192C21.2715 54.3445 37.4521 55.7153 46.5864 46.581Z" stroke="#2F2F2F" stroke-miterlimit="10"/>
<path d="M46.544 46.5386C55.694 37.3886 54.3549 21.2144 43.553 10.4125C32.7511 -0.38943 16.5769 -1.72857 7.42689 7.42141C-1.7231 16.5714 -0.383954 32.7456 10.4179 43.5475C21.2198 54.3494 37.394 55.6885 46.544 46.5386Z" stroke="#303030" stroke-miterlimit="10"/>
<path d="M46.5016 46.4961C55.6672 37.3305 54.3597 21.1627 43.5813 10.3842C32.8028 -0.394285 16.6349 -1.70177 7.46933 7.46384C-1.69627 16.6294 -0.388788 32.7973 10.3897 43.5758C21.1682 54.3542 37.336 55.6617 46.5016 46.4961Z" stroke="#313131" stroke-miterlimit="10"/>
<path d="M46.4519 46.4466C55.6331 37.2654 54.3605 21.107 43.6093 10.3559C32.8582 -0.395225 16.6998 -1.66789 7.51861 7.51334C-1.66261 16.6946 -0.389954 32.8529 10.3612 43.6041C21.1123 54.3552 37.2707 55.6279 46.4519 46.4466Z" stroke="#323232" stroke-miterlimit="10"/>
<path d="M46.4095 46.4042C55.6063 37.2074 54.3653 21.0553 43.6376 10.3276C32.9099 -0.400077 16.7579 -1.64108 7.56106 7.55577C-1.63579 16.7526 -0.394788 32.9047 10.3329 43.6324C21.0606 54.3601 37.2127 55.6011 46.4095 46.4042Z" stroke="#333333" stroke-miterlimit="10"/>
<path d="M46.3668 46.3618C55.5832 37.1454 54.377 20.9965 43.6728 10.2923C32.9685 -0.411995 16.8196 -1.61817 7.60325 7.5982C-1.61313 16.8146 -0.406947 32.9634 10.2973 43.6677C21.0016 54.372 37.1505 55.5782 46.3668 46.3618Z" stroke="#343434" stroke-miterlimit="10"/>
<path d="M46.3176 46.3123C55.5496 37.0803 54.3783 20.9409 43.7013 10.264C33.0244 -0.412964 16.885 -1.58432 7.65302 7.64767C-1.57898 16.8797 -0.407623 33.019 10.2693 43.696C20.9462 54.3729 37.0856 55.5443 46.3176 46.3123Z" stroke="#353535" stroke-miterlimit="10"/>
<path d="M46.2752 46.2698C55.5228 37.0222 54.3831 20.8892 43.7296 10.2357C33.0761 -0.417821 16.9431 -1.55752 7.69546 7.6901C-1.55215 16.9377 -0.412459 33.0708 10.241 43.7243C20.8945 54.3778 37.0276 55.5175 46.2752 46.2698Z" stroke="#363636" stroke-miterlimit="10"/>
<path d="M46.2255 46.2204C55.4887 36.9571 54.3839 20.8336 43.7577 10.2074C33.1315 -0.418762 17.008 -1.52363 7.74474 7.7396C-1.5185 17.0028 -0.413623 33.1264 10.2125 43.7526C20.8387 54.3787 36.9623 55.4836 46.2255 46.2204Z" stroke="#373737" stroke-miterlimit="10"/>
<path d="M46.1831 46.1779C55.4619 36.8991 54.3887 20.7819 43.786 10.1791C33.1833 -0.423614 17.066 -1.49683 7.78719 7.78203C-1.49167 17.0609 -0.418458 33.1781 10.1843 43.7808C20.787 54.3836 36.9042 55.4568 46.1831 46.1779Z" stroke="#383838" stroke-miterlimit="10"/>
<path d="M46.1409 46.1355C55.4393 36.8371 54.4009 20.7231 43.8216 10.1438C33.2423 -0.435532 17.1282 -1.47392 7.82986 7.82446C-1.46852 17.1228 -0.430128 33.2369 10.1492 43.8162C20.7285 54.3955 36.8425 55.4339 46.1409 46.1355Z" stroke="#393939" stroke-miterlimit="10"/>
<path d="M46.0912 46.086C55.4052 36.772 54.4016 20.6675 43.8497 10.1155C33.2977 -0.43647 17.1931 -1.44003 7.87914 7.87397C-1.43486 17.188 -0.431293 33.2925 10.1207 43.8445C20.6726 54.3965 36.7772 55.4 46.0912 46.086Z" stroke="#3A3A3A" stroke-miterlimit="10"/>
<path d="M46.0488 46.0436C55.3784 36.714 54.4065 20.6157 43.878 10.0872C33.3494 -0.441324 17.2512 -1.41323 7.92159 7.91639C-1.40804 17.246 -0.436128 33.3442 10.0924 43.8728C20.6209 54.4013 36.7192 55.3732 46.0488 46.0436Z" stroke="#3B3B3B" stroke-miterlimit="10"/>
<path d="M46.0064 46.0012C55.3516 36.6559 54.4114 20.564 43.9063 10.0589C33.4012 -0.446179 17.3093 -1.38643 7.96403 7.95882C-1.38121 17.3041 -0.440963 33.396 10.0641 43.9011C20.5692 54.4062 36.6611 55.3464 46.0064 46.0012Z" stroke="#3C3C3C" stroke-miterlimit="10"/>
<path d="M45.9572 45.9517C55.318 36.5908 54.4126 20.5084 43.9348 10.0306C33.4571 -0.44712 17.3747 -1.35254 8.0138 8.00832C-1.34706 17.3692 -0.441639 33.4516 10.0361 43.9293C20.5139 54.4071 36.5963 55.3125 45.9572 45.9517Z" stroke="#3D3D3D" stroke-miterlimit="10"/>
<path d="M45.9145 45.9092C55.2949 36.5288 54.4243 20.4496 43.9699 9.99527C33.5156 -0.459066 17.4364 -1.32967 8.05599 8.05073C-1.3244 17.4311 -0.453798 33.5103 10.0005 43.9647C20.4549 54.419 36.5341 55.2896 45.9145 45.9092Z" stroke="#3E3E3E" stroke-miterlimit="10"/>
<path d="M45.8721 45.8668C55.2681 36.4708 54.4292 20.3979 43.9983 9.96698C33.5673 -0.463922 17.4945 -1.30286 8.09844 8.09315C-1.29758 17.4892 -0.458633 33.5621 9.97227 43.993C20.4032 54.4239 36.4761 55.2628 45.8721 45.8668Z" stroke="#3F3F3F" stroke-miterlimit="10"/>
<path d="M45.8224 45.8173C55.234 36.4057 54.4299 20.3423 44.0263 9.93871C33.6227 -0.46486 17.5594 -1.26898 8.14772 8.14266C-1.26392 17.5543 -0.459798 33.6177 9.94377 44.0213C20.3473 54.4248 36.4107 55.2289 45.8224 45.8173Z" stroke="#404040" stroke-miterlimit="10"/>
<path d="M45.78 45.7749C55.2072 36.3476 54.4348 20.2906 44.0546 9.91042C33.6745 -0.469713 17.6174 -1.24217 8.19016 8.18508C-1.23709 17.6123 -0.464632 33.6694 9.9155 44.0495C20.2956 54.4297 36.3527 55.2021 45.78 45.7749Z" stroke="#414141" stroke-miterlimit="10"/>
<path d="M45.7307 45.7254C55.1736 36.2825 54.436 20.2349 44.0832 9.88214C33.7304 -0.470654 17.6828 -1.20829 8.23993 8.23459C-1.20295 17.6775 -0.465308 33.725 9.88749 44.0778C20.2403 54.4306 36.2879 55.1683 45.7307 45.7254Z" stroke="#424242" stroke-miterlimit="10"/>
<path d="M45.6883 45.683C55.1468 36.2245 54.4408 20.1832 44.1115 9.85386C33.7821 -0.475511 17.7409 -1.18149 8.28238 8.27701C-1.17612 17.7355 -0.470144 33.7767 9.85922 44.1061C20.1886 54.4355 36.2298 55.1415 45.6883 45.683Z" stroke="#434343" stroke-miterlimit="10"/>
<path d="M45.6457 45.6405C55.1237 36.1625 54.4525 20.1244 44.1466 9.81851C33.8407 -0.487426 17.8026 -1.15858 8.32457 8.31944C-1.15346 17.7975 -0.482303 33.8355 9.82363 44.1415C20.1296 54.4474 36.1676 55.1186 45.6457 45.6405Z" stroke="#444444" stroke-miterlimit="10"/>
<path d="M45.5964 45.5911C55.0901 36.0974 54.4538 20.0688 44.1752 9.79023C33.8966 -0.488367 17.868 -1.12469 8.37434 8.36895C-1.11931 17.8626 -0.482979 33.8912 9.79562 44.1698C20.0742 54.4484 36.1028 55.0847 45.5964 45.5911Z" stroke="#454545" stroke-miterlimit="10"/>
<path d="M45.554 45.5486C55.0633 36.0393 54.4586 20.0171 44.2035 9.76192C33.9483 -0.493249 17.926 -1.09792 8.41678 8.41135C-1.09249 17.9206 -0.487813 33.9429 9.76735 44.198C20.0225 54.4532 36.0448 55.0579 45.554 45.5486Z" stroke="#464646" stroke-miterlimit="10"/>
<path d="M45.5116 45.5062C55.0365 35.9813 54.4635 19.9654 44.2318 9.73366C34 -0.498073 17.9841 -1.07109 8.45922 8.4538C-1.06566 17.9787 -0.492649 33.9946 9.73909 44.2263C19.9708 54.4581 35.9867 55.0311 45.5116 45.5062Z" stroke="#474747" stroke-miterlimit="10"/>
<path d="M45.4619 45.4567C55.0024 35.9162 54.4642 19.9098 44.2598 9.70536C34.0554 -0.499045 18.049 -1.03723 8.50851 8.50327C-1.032 18.0438 -0.493814 34.0502 9.71059 44.2546C19.915 54.459 35.9214 54.9972 45.4619 45.4567Z" stroke="#484848" stroke-miterlimit="10"/>
<path d="M45.4197 45.4143C54.9798 35.8542 54.4764 19.851 44.2954 9.67001C34.1145 -0.510959 18.1112 -1.01433 8.55118 8.54571C-1.00885 18.1057 -0.505484 34.109 9.67548 44.29C19.8565 54.4709 35.8597 54.9743 45.4197 45.4143Z" stroke="#494949" stroke-miterlimit="10"/>
<path d="M45.3773 45.3718C54.953 35.7962 54.4813 19.7993 44.3237 9.64172C34.1662 -0.515814 18.1693 -0.987523 8.59363 8.58813C-0.982026 18.1638 -0.510318 34.1607 9.64722 44.3182C19.8048 54.4758 35.8017 54.9475 45.3773 45.3718Z" stroke="#4A4A4A" stroke-miterlimit="10"/>
<path d="M45.3276 45.3223C54.9189 35.7311 54.482 19.7436 44.3518 9.61344C34.2216 -0.516757 18.2342 -0.953639 8.64291 8.63764C-0.948367 18.2289 -0.511484 34.2163 9.61872 44.3465C19.7489 54.4767 35.7363 54.9136 45.3276 45.3223Z" stroke="#4B4B4B" stroke-miterlimit="10"/>
<path d="M45.2852 45.2799C54.8921 35.673 54.4869 19.6919 44.3801 9.58516C34.2733 -0.521609 18.2922 -0.926832 8.68535 8.68006C-0.921544 18.287 -0.516318 34.268 9.59045 44.3748C19.6972 54.4816 35.6783 54.8868 45.2852 45.2799Z" stroke="#4C4C4C" stroke-miterlimit="10"/>
<path d="M45.2355 45.2304C54.858 35.6079 54.4876 19.6363 44.4082 9.55688C34.3287 -0.522547 18.3572 -0.892949 8.73463 8.72957C-0.887885 18.3521 -0.517483 34.3237 9.56195 44.4031C19.6414 54.4825 35.613 54.8529 45.2355 45.2304Z" stroke="#4D4D4D" stroke-miterlimit="10"/>
<path d="M45.1933 45.188C54.8354 35.546 54.4998 19.5775 44.4438 9.52154C34.3878 -0.534463 18.4194 -0.870041 8.77731 8.772C-0.864731 18.414 -0.529154 34.3825 9.52685 44.4385C19.5828 54.4945 35.5513 54.83 45.1933 45.188Z" stroke="#4E4E4E" stroke-miterlimit="10"/>
<path d="M45.1509 45.1455C54.8086 35.4879 54.5046 19.5258 44.4721 9.49322C34.4395 -0.53935 18.4774 -0.843268 8.81976 8.8144C-0.837908 18.4721 -0.533989 34.4342 9.49858 44.4667C19.5311 54.4993 35.4932 54.8032 45.1509 45.1455Z" stroke="#4F4F4F" stroke-miterlimit="10"/>
<path d="M45.1012 45.0961C54.7745 35.4228 54.5054 19.4702 44.5001 9.46494C34.4949 -0.540291 18.5423 -0.809384 8.86904 8.8639C-0.804247 18.5372 -0.535154 34.4898 9.47008 44.495C19.4753 54.5002 35.4279 54.7693 45.1012 45.0961Z" stroke="#505050" stroke-miterlimit="10"/>
<path d="M45.0588 45.0536C54.7477 35.3647 54.5103 19.4185 44.5285 9.43665C34.5467 -0.545146 18.6004 -0.78258 8.91148 8.90633C-0.777425 18.5952 -0.539988 34.5415 9.44181 44.5233C19.4236 54.5051 35.3699 54.7425 45.0588 45.0536Z" stroke="#515151" stroke-miterlimit="10"/>
<path d="M45.0164 45.0112C54.7209 35.3067 54.5151 19.3667 44.5568 9.40837C34.5984 -0.549999 18.6585 -0.755774 8.95393 8.94875C-0.750602 18.6533 -0.544823 34.5932 9.41355 44.5516C19.3719 54.5099 35.3118 54.7157 45.0164 45.0112Z" stroke="#525252" stroke-miterlimit="10"/>
<path d="M44.9669 44.9617C54.6909 35.2377 54.5232 19.3041 44.5921 9.37303C34.6611 -0.558002 18.7275 -0.725788 9.00344 8.99827C-0.720612 18.7223 -0.552823 34.6559 9.37821 44.5869C19.3092 54.518 35.2428 54.6858 44.9669 44.9617Z" stroke="#535353" stroke-miterlimit="10"/>
<path d="M44.9245 44.9193C54.6642 35.1796 54.528 19.2523 44.6204 9.34475C34.7128 -0.562853 18.7856 -0.698985 9.04589 9.04069C-0.69379 18.7804 -0.557659 34.7076 9.34994 44.6152C19.2575 54.5228 35.1848 54.659 44.9245 44.9193Z" stroke="#545454" stroke-miterlimit="10"/>
<path d="M44.8821 44.8769C54.6374 35.1216 54.5329 19.2006 44.6487 9.31646C34.7646 -0.567708 18.8436 -0.672181 9.08833 9.08312C-0.666965 18.8384 -0.562493 34.7593 9.32168 44.6435C19.2058 54.5277 35.1268 54.6322 44.8821 44.8769Z" stroke="#555555" stroke-miterlimit="10"/>
<path d="M44.8329 44.8274C54.6038 35.0565 54.5341 19.145 44.6773 9.28818C34.8205 -0.568649 18.909 -0.638297 9.1381 9.13262C-0.632817 18.9035 -0.563169 34.815 9.29366 44.6718C19.1505 54.5286 35.0619 54.5983 44.8329 44.8274Z" stroke="#565656" stroke-miterlimit="10"/>
<path d="M44.7904 44.7849C54.577 34.9984 54.539 19.0933 44.7056 9.2599C34.8722 -0.573505 18.9671 -0.611491 9.18054 9.17505C-0.605994 18.9616 -0.568004 34.8667 9.2654 44.7001C19.0988 54.5335 35.0039 54.5715 44.7904 44.7849Z" stroke="#575757" stroke-miterlimit="10"/>
<path d="M44.7478 44.7425C54.5538 34.9364 54.5507 19.0345 44.7407 9.22452C34.9307 -0.585451 19.0288 -0.588613 9.22274 9.21745C-0.58333 19.0235 -0.580164 34.9255 9.22981 44.7354C19.0398 54.5454 34.9417 54.5486 44.7478 44.7425Z" stroke="#585858" stroke-miterlimit="10"/>
<path d="M44.6981 44.693C54.5198 34.8713 54.5514 18.9789 44.7688 9.19624C34.9861 -0.58639 19.0937 -0.554732 9.27202 9.26695C-0.549669 19.0886 -0.581328 34.9811 9.20131 44.7637C18.9839 54.5463 34.8764 54.5147 44.6981 44.693Z" stroke="#595959" stroke-miterlimit="10"/>
<path d="M44.6557 44.6506C54.493 34.8133 54.5563 18.9272 44.7971 9.16796C35.0379 -0.591242 19.1518 -0.527926 9.31446 9.30938C-0.522847 19.1467 -0.586162 35.0328 9.17304 44.792C18.9322 54.5512 34.8183 54.4879 44.6557 44.6506Z" stroke="#5A5A5A" stroke-miterlimit="10"/>
<path d="M44.6064 44.6011C54.4594 34.7482 54.5575 18.8715 44.8256 9.13968C35.0938 -0.592183 19.2172 -0.494042 9.36423 9.35888C-0.488698 19.2118 -0.586838 35.0884 9.14503 44.8203C18.8769 54.5522 34.7535 54.454 44.6064 44.6011Z" stroke="#5B5B5B" stroke-miterlimit="10"/>
<path d="M44.564 44.5587C54.4326 34.6901 54.5624 18.8198 44.8539 9.1114C35.1455 -0.597039 19.2752 -0.467238 9.40667 9.40131C-0.461875 19.2699 -0.591673 35.1401 9.11676 44.8486C18.8252 54.557 34.6955 54.4272 44.564 44.5587Z" stroke="#5C5C5C" stroke-miterlimit="10"/>
<path d="M44.5214 44.5162C54.4094 34.6282 54.5741 18.7611 44.8891 9.07605C35.2041 -0.608955 19.3369 -0.44433 9.44887 9.44374C-0.43921 19.3318 -0.603833 35.1989 9.08117 44.8839C18.7662 54.5689 34.6333 54.4043 44.5214 44.5162Z" stroke="#5D5D5D" stroke-miterlimit="10"/>
<path d="M44.4721 44.4667C54.3758 34.5631 54.5753 18.7054 44.9176 9.04777C35.2599 -0.609896 19.4023 -0.410447 9.49863 9.49325C-0.405063 19.3969 -0.604509 35.2546 9.05316 44.9122C18.7108 54.5699 34.5684 54.3704 44.4721 44.4667Z" stroke="#5E5E5E" stroke-miterlimit="10"/>
<path d="M44.4297 44.4243C54.349 34.505 54.5801 18.6537 44.9459 9.01949C35.3117 -0.614748 19.4604 -0.383643 9.54108 9.53567C-0.378239 19.455 -0.609344 35.3063 9.02489 44.9405C18.6591 54.5747 34.5104 54.3436 44.4297 44.4243Z" stroke="#5F5F5F" stroke-miterlimit="10"/>
<path d="M44.3873 44.3819C54.3223 34.447 54.585 18.602 44.9742 8.9912C35.3634 -0.6196 19.5185 -0.356839 9.58352 9.5781C-0.351416 19.513 -0.614178 35.358 8.99662 44.9688C18.6074 54.5796 34.4524 54.3168 44.3873 44.3819Z" stroke="#606060" stroke-miterlimit="10"/>
<path d="M44.3376 44.3324C54.2882 34.3818 54.5857 18.5464 45.0023 8.96289C35.4188 -0.620574 19.5834 -0.322986 9.6328 9.62757C-0.317756 19.5781 -0.615344 35.4136 8.96812 44.9971C18.5516 54.5805 34.387 54.2829 44.3376 44.3324Z" stroke="#616161" stroke-miterlimit="10"/>
<path d="M44.2954 44.29C54.2655 34.3199 54.5979 18.4876 45.0379 8.92755C35.4779 -0.632489 19.6456 -0.300078 9.67548 9.67001C-0.294603 19.6401 -0.627014 35.4724 8.93302 45.0324C18.4931 54.5925 34.3253 54.26 44.2954 44.29Z" stroke="#626262" stroke-miterlimit="10"/>
<path d="M44.253 44.2475C54.2387 34.2618 54.6028 18.4359 45.0662 8.89926C35.5296 -0.637344 19.7036 -0.273274 9.71793 9.71243C-0.267779 19.6981 -0.631849 35.5241 8.90475 45.0607C18.4414 54.5973 34.2673 54.2332 44.253 44.2475Z" stroke="#636363" stroke-miterlimit="10"/>
<path d="M44.2033 44.198C54.2046 34.1967 54.6035 18.3802 45.0943 8.87098C35.585 -0.638286 19.7685 -0.239391 9.76721 9.76194C-0.23412 19.7633 -0.633014 35.5797 8.87625 45.089C18.3855 54.5983 34.202 54.1994 44.2033 44.198Z" stroke="#646464" stroke-miterlimit="10"/>
<path d="M44.1609 44.1556C54.1778 34.1387 54.6084 18.3285 45.1226 8.8427C35.6367 -0.643138 19.8266 -0.212584 9.80965 9.80436C-0.207296 19.8213 -0.637849 35.6314 8.84799 45.1173C18.3338 54.6031 34.144 54.1726 44.1609 44.1556Z" stroke="#656565" stroke-miterlimit="10"/>
<path d="M44.1112 44.1061C54.1438 34.0736 54.6091 18.2729 45.1506 8.81442C35.6921 -0.644077 19.8915 -0.1787 9.85893 9.85387C-0.173638 19.8864 -0.639014 35.6871 8.81948 45.1456C18.278 54.6041 34.0786 54.1387 44.1112 44.1061Z" stroke="#666666" stroke-miterlimit="10"/>
<path d="M44.069 44.0637C54.1211 34.0116 54.6213 18.2141 45.1862 8.77907C35.7512 -0.655995 19.9537 -0.155795 9.90161 9.8963C-0.150484 19.9484 -0.650684 35.7459 8.78438 45.1809C18.2195 54.616 34.0169 54.1158 44.069 44.0637Z" stroke="#676767" stroke-miterlimit="10"/>
<path d="M44.0266 44.0213C54.0943 33.9536 54.6262 18.1624 45.2145 8.75079C35.8029 -0.660848 20.0118 -0.128989 9.94406 9.93873C-0.123661 20.0064 -0.655519 35.7976 8.75612 45.2092C18.1678 54.6208 33.9589 54.089 44.0266 44.0213Z" stroke="#686868" stroke-miterlimit="10"/>
<path d="M43.9769 43.9718C54.0602 33.8884 54.6269 18.1068 45.2426 8.72248C35.8583 -0.66182 20.0767 -0.0951382 9.99334 9.9882C-0.0900009 20.0715 -0.656684 35.8532 8.72761 45.2375C18.1119 54.6218 33.8935 54.0551 43.9769 43.9718Z" stroke="#696969" stroke-miterlimit="10"/>
<path d="M43.9345 43.9293C54.0334 33.8304 54.6318 18.0551 45.2709 8.69419C35.91 -0.666675 20.1347 -0.0683318 10.0358 10.0306C-0.0631778 20.1296 -0.661518 35.9049 8.69935 45.2658C18.0602 54.6266 33.8355 54.0283 43.9345 43.9293Z" stroke="#6A6A6A" stroke-miterlimit="10"/>
<path d="M43.8921 43.8869C54.0066 33.7723 54.6366 18.0033 45.2992 8.66591C35.9618 -0.671528 20.1928 -0.0415281 10.0782 10.0731C-0.036354 20.1876 -0.666353 35.9566 8.67108 45.294C18.0085 54.6315 33.7775 54.0015 43.8921 43.8869Z" stroke="#6B6B6B" stroke-miterlimit="10"/>
<path d="M43.8428 43.8374C53.973 33.7072 54.6379 17.9477 45.3278 8.63763C36.0177 -0.672466 20.2582 -0.00764438 10.128 10.1226C-0.00220672 20.2528 -0.667029 36.0122 8.64307 45.3223C17.9532 54.6324 33.7126 53.9676 43.8428 43.8374Z" stroke="#6C6C6C" stroke-miterlimit="10"/>
<path d="M43.8002 43.795C53.9499 33.6453 54.6496 17.889 45.3629 8.60228C36.0762 -0.684385 20.3199 0.0152637 10.1702 10.165C0.0204589 20.3147 -0.679189 36.071 8.60748 45.3577C17.8941 54.6444 33.6505 53.9447 43.8002 43.795Z" stroke="#6D6D6D" stroke-miterlimit="10"/>
<path d="M43.7578 43.7526C53.9231 33.5872 54.6544 17.8372 45.3912 8.574C36.128 -0.689237 20.378 0.0420673 10.2126 10.2074C0.047282 20.3728 -0.684023 36.1227 8.57921 45.386C17.8424 54.6492 33.5924 53.9179 43.7578 43.7526Z" stroke="#6E6E6E" stroke-miterlimit="10"/>
<path d="M43.7086 43.7031C53.8895 33.5221 54.6556 17.7816 45.4197 8.54572C36.1838 -0.690178 20.4434 0.0759511 10.2624 10.2569C0.08143 20.4379 -0.684699 36.1784 8.5512 45.4143C17.7871 54.6502 33.5276 53.884 43.7086 43.7031Z" stroke="#6F6F6F" stroke-miterlimit="10"/>
<path d="M43.6661 43.6606C53.8627 33.4641 54.6605 17.7299 45.4481 8.51743C36.2356 -0.695034 20.5014 0.102757 10.3048 10.2993C0.108253 20.4959 -0.689534 36.2301 8.52293 45.4426C17.7354 54.655 33.4696 53.8572 43.6661 43.6606Z" stroke="#707070" stroke-miterlimit="10"/>
<path d="M43.6164 43.6111C53.8286 33.3989 54.6612 17.6743 45.4761 8.48913C36.291 -0.696003 20.5663 0.136608 10.3541 10.3488C0.141913 20.561 -0.690699 36.2857 8.49443 45.4708C17.6796 54.6559 33.4042 53.8233 43.6164 43.6111Z" stroke="#717171" stroke-miterlimit="10"/>
<path d="M43.5738 43.5687C53.8055 33.337 54.6729 17.6155 45.5112 8.45378C36.3495 -0.707921 20.6281 0.159516 10.3963 10.3913C0.164578 20.623 -0.702858 36.3445 8.45884 45.5062C17.6205 54.6679 33.342 53.8004 43.5738 43.5687Z" stroke="#727272" stroke-miterlimit="10"/>
<path d="M43.5314 43.5263C53.7787 33.2789 54.6778 17.5638 45.5395 8.42549C36.4013 -0.712774 20.6861 0.18632 10.4388 10.4337C0.191401 20.681 -0.707693 36.3962 8.43058 45.5345C17.5688 54.6727 33.284 53.7736 43.5314 43.5263Z" stroke="#737373" stroke-miterlimit="10"/>
<path d="M43.4821 43.4768C53.7451 33.2138 54.679 17.5081 45.5681 8.39722C36.4572 -0.713712 20.7515 0.220206 10.4885 10.4832C0.225549 20.7462 -0.708369 36.4518 8.40256 45.5627C17.5135 54.6737 33.2192 53.7398 43.4821 43.4768Z" stroke="#747474" stroke-miterlimit="10"/>
<path d="M43.4397 43.4344C53.7183 33.1558 54.6839 17.4564 45.5964 8.36893C36.5089 -0.718568 20.8096 0.24701 10.531 10.5256C0.252373 20.8042 -0.713204 36.5035 8.3743 45.591C17.4618 54.6785 33.1611 53.713 43.4397 43.4344Z" stroke="#757575" stroke-miterlimit="10"/>
<path d="M43.3973 43.3919C53.6915 33.0977 54.6888 17.4047 45.6247 8.34064C36.5606 -0.723424 20.8676 0.273814 10.5734 10.568C0.279196 20.8623 -0.718039 36.5552 8.34603 45.6193C17.4101 54.6834 33.1031 53.6861 43.3973 43.3919Z" stroke="#767676" stroke-miterlimit="10"/>
<path d="M43.3478 43.3424C53.6616 33.0287 54.6968 17.342 45.6601 8.30531C36.6233 -0.731425 20.9367 0.303799 10.6229 10.6175C0.309185 20.9313 -0.72604 36.618 8.31069 45.6547C17.3474 54.6914 33.0341 53.6562 43.3478 43.3424Z" stroke="#777777" stroke-miterlimit="10"/>
<path d="M43.3054 43.3C53.6348 32.9707 54.7017 17.2903 45.6884 8.27702C36.6751 -0.73628 20.9947 0.330605 10.6654 10.66C0.336008 20.9893 -0.730874 36.6697 8.28243 45.683C17.2957 54.6963 32.9761 53.6294 43.3054 43.3Z" stroke="#787878" stroke-miterlimit="10"/>
<path d="M43.263 43.2576C53.608 32.9126 54.7065 17.2386 45.7167 8.24874C36.7268 -0.741133 21.0528 0.357409 10.7078 10.7024C0.362832 21.0474 -0.735709 36.7214 8.25416 45.7113C17.244 54.7011 32.918 53.6026 43.263 43.2576Z" stroke="#797979" stroke-miterlimit="10"/>
<path d="M43.2133 43.2081C53.5739 32.8475 54.7073 17.183 45.7447 8.22043C36.7822 -0.742103 21.1177 0.391262 10.7571 10.7519C0.396491 21.1125 -0.736874 36.777 8.22566 45.7395C17.1882 54.702 32.8527 53.5687 43.2133 43.2081Z" stroke="#7A7A7A" stroke-miterlimit="10"/>
<path d="M43.1709 43.1657C53.5471 32.7894 54.7121 17.1313 45.773 8.19217C36.8339 -0.746927 21.1758 0.418096 10.7995 10.7943C0.423315 21.1706 -0.741709 36.8287 8.19739 45.7678C17.1365 54.7069 32.7947 53.5419 43.1709 43.1657Z" stroke="#7B7B7B" stroke-miterlimit="10"/>
<path d="M43.1287 43.1232C53.5245 32.7275 54.7243 17.0725 45.8087 8.1568C36.893 -0.758873 21.238 0.440974 10.8422 10.8367C0.446468 21.2325 -0.753379 36.8875 8.16229 45.8032C17.078 54.7188 32.733 53.519 43.1287 43.1232Z" stroke="#7C7C7C" stroke-miterlimit="10"/>
<path d="M43.079 43.0737C53.4904 32.6624 54.7251 17.0169 45.8367 8.12852C36.9484 -0.759814 21.3029 0.474858 10.8915 10.8862C0.480128 21.2976 -0.754543 36.9431 8.13379 45.8315C17.0221 54.7198 32.6676 53.4851 43.079 43.0737Z" stroke="#7D7D7D" stroke-miterlimit="10"/>
<path d="M43.0366 43.0313C53.4636 32.6043 54.7299 16.9651 45.865 8.10023C37.0001 -0.764671 21.3609 0.501661 10.9339 10.9287C0.50695 21.3557 -0.75938 36.9948 8.10552 45.8597C16.9704 54.7246 32.6096 53.4583 43.0366 43.0313Z" stroke="#7E7E7E" stroke-miterlimit="10"/>
<path d="M42.9869 42.9818C53.4295 32.5392 54.7307 16.9095 45.8931 8.07196C37.0555 -0.765609 21.4259 0.535545 10.9832 10.9782C0.540611 21.4208 -0.760544 37.0505 8.07702 45.888C16.9146 54.7256 32.5443 53.4244 42.9869 42.9818Z" stroke="#7F7F7F" stroke-miterlimit="10"/>
<path d="M42.9445 42.9394C53.4027 32.4812 54.7355 16.8578 45.9214 8.04367C37.1073 -0.770461 21.4839 0.562352 11.0257 11.0206C0.567433 21.4788 -0.765378 37.1022 8.04876 45.9163C16.8629 54.7304 32.4862 53.3976 42.9445 42.9394Z" stroke="#808080" stroke-miterlimit="10"/>
<path d="M42.9023 42.897C53.3801 32.4192 54.7477 16.799 45.957 8.00832C37.1663 -0.782379 21.5461 0.585257 11.0684 11.063C0.590588 21.5408 -0.777048 37.161 8.01365 45.9517C16.8044 54.7424 32.4245 53.3747 42.9023 42.897Z" stroke="#818181" stroke-miterlimit="10"/>
<path d="M42.8526 42.8474C53.346 32.3541 54.7484 16.7434 45.9851 7.98002C37.2217 -0.783349 21.611 0.61911 11.1176 11.1125C0.624246 21.6059 -0.778214 37.2166 7.98515 45.9799C16.7485 54.7433 32.3592 53.3408 42.8526 42.8474Z" stroke="#828282" stroke-miterlimit="10"/>
<path d="M42.8102 42.805C53.3192 32.296 54.7533 16.6917 46.0134 7.95173C37.2734 -0.788205 21.6691 0.645916 11.1601 11.1549C0.651071 21.6639 -0.783049 37.2683 7.95688 46.0082C16.6968 54.7481 32.3012 53.314 42.8102 42.805Z" stroke="#838383" stroke-miterlimit="10"/>
<path d="M42.7678 42.7626C53.2924 32.238 54.7582 16.64 46.0417 7.92347C37.3252 -0.793029 21.7272 0.672751 11.2025 11.1974C0.677893 21.722 -0.787883 37.32 7.92862 46.0365C16.6451 54.753 32.2431 53.2873 42.7678 42.7626Z" stroke="#848484" stroke-miterlimit="10"/>
<path d="M42.7185 42.7131C53.2588 32.1729 54.7594 16.5843 46.0702 7.89517C37.3811 -0.793998 21.7925 0.706604 11.2523 11.2469C0.712042 21.7871 -0.788559 37.3756 7.90061 46.0648C16.5898 54.754 32.1783 53.2534 42.7185 42.7131Z" stroke="#858585" stroke-miterlimit="10"/>
<path d="M42.6759 42.6707C53.2357 32.1109 54.7711 16.5256 46.1054 7.85982C37.4396 -0.805917 21.8543 0.729512 11.2945 11.2893C0.734706 21.8491 -0.800719 37.4344 7.86501 46.1002C16.5307 54.7659 32.1161 53.2305 42.6759 42.6707Z" stroke="#868686" stroke-miterlimit="10"/>
<path d="M42.6335 42.6283C53.2089 32.0529 54.776 16.4738 46.1337 7.83153C37.4913 -0.810769 21.9123 0.756316 11.3369 11.3317C0.76153 21.9071 -0.805553 37.4861 7.83675 46.1284C16.479 54.7707 32.0581 53.2037 42.6335 42.6283Z" stroke="#878787" stroke-miterlimit="10"/>
<path d="M42.5842 42.5788C53.1753 31.9878 54.7772 16.4182 46.1622 7.80326C37.5472 -0.811707 21.9777 0.790199 11.3867 11.3812C0.795677 21.9722 -0.80623 37.5418 7.80874 46.1567C16.4237 54.7717 31.9932 53.1698 42.5842 42.5788Z" stroke="#888888" stroke-miterlimit="10"/>
<path d="M42.5418 42.5363C53.1485 31.9297 54.782 16.3665 46.1905 7.77497C37.599 -0.816563 22.0358 0.817003 11.4291 11.4236C0.822502 22.0303 -0.811064 37.5935 7.78047 46.185C16.372 54.7765 31.9352 53.143 42.5418 42.5363Z" stroke="#898989" stroke-miterlimit="10"/>
<path d="M42.4921 42.4869C53.1144 31.8646 54.7828 16.3109 46.2186 7.74669C37.6544 -0.817504 22.1007 0.850887 11.4784 11.4731C0.85616 22.0954 -0.812229 37.6491 7.75197 46.2133C16.3162 54.7775 31.8699 53.1091 42.4921 42.4869Z" stroke="#8A8A8A" stroke-miterlimit="10"/>
<path d="M42.4495 42.4444C53.0912 31.8026 54.7945 16.2521 46.2537 7.71132C37.7129 -0.82945 22.1624 0.873764 11.5206 11.5156C0.878826 22.1573 -0.824389 37.7079 7.71638 46.2486C16.2571 54.7894 31.8077 53.0862 42.4495 42.4444Z" stroke="#8B8B8B" stroke-miterlimit="10"/>
<path d="M42.4071 42.402C53.0645 31.7446 54.7993 16.2004 46.282 7.68303C37.7647 -0.834305 22.2205 0.900568 11.5631 11.558C0.905649 22.2154 -0.829223 37.7596 7.68811 46.2769C16.2054 54.7943 31.7496 53.0594 42.4071 42.402Z" stroke="#8C8C8C" stroke-miterlimit="10"/>
<path d="M42.3578 42.3525C53.0309 31.6795 54.8006 16.1448 46.3106 7.65475C37.8206 -0.835244 22.2859 0.934452 11.6128 11.6075C0.939797 22.2805 -0.829899 37.8152 7.6601 46.3052C16.1501 54.7952 31.6848 53.0255 42.3578 42.3525Z" stroke="#8D8D8D" stroke-miterlimit="10"/>
<path d="M42.3154 42.3101C53.0041 31.6214 54.8054 16.093 46.3389 7.62647C37.8723 -0.840097 22.3439 0.961258 11.6553 11.6499C0.96662 22.3386 -0.834734 37.8669 7.63183 46.3335C16.0984 54.8001 31.6268 52.9987 42.3154 42.3101Z" stroke="#8E8E8E" stroke-miterlimit="10"/>
<path d="M42.273 42.2676C52.9773 31.5634 54.8103 16.0413 46.3672 7.59818C37.924 -0.844953 22.402 0.988059 11.6977 11.6923C0.993443 22.3966 -0.839569 37.9186 7.60357 46.3618C16.0467 54.8049 31.5687 52.9719 42.273 42.2676Z" stroke="#8F8F8F" stroke-miterlimit="10"/>
<path d="M42.2233 42.2181C52.9432 31.4982 54.811 15.9857 46.3952 7.5699C37.9794 -0.845894 22.4669 1.02195 11.747 11.7418C1.0271 22.4617 -0.840734 37.9743 7.57506 46.3901C15.9909 54.8059 31.5034 52.938 42.2233 42.2181Z" stroke="#909090" stroke-miterlimit="10"/>
<path d="M42.1811 42.1757C52.9205 31.4363 54.8232 15.9269 46.4308 7.53456C38.0385 -0.857809 22.5291 1.04485 11.7897 11.7843C1.05026 22.5237 -0.852404 38.0331 7.53996 46.4254C15.9323 54.8178 31.4417 52.9151 42.1811 42.1757Z" stroke="#919191" stroke-miterlimit="10"/>
<path d="M42.1387 42.1333C52.8938 31.3783 54.8281 15.8752 46.4591 7.50627C38.0902 -0.862665 22.5872 1.07166 11.8321 11.8267C1.07708 22.5817 -0.857239 38.0848 7.5117 46.4537C15.8806 54.8227 31.3837 52.8883 42.1387 42.1333Z" stroke="#929292" stroke-miterlimit="10"/>
<path d="M42.089 42.0838C52.8597 31.3131 54.8288 15.8196 46.4872 7.47797C38.1456 -0.863633 22.6521 1.10551 11.8814 11.8762C1.11074 22.6468 -0.858403 38.1404 7.4832 46.482C15.8248 54.8236 31.3183 52.8544 42.089 42.0838Z" stroke="#939393" stroke-miterlimit="10"/>
<path d="M42.0466 42.0414C52.8329 31.2551 54.8337 15.7679 46.5155 7.44971C38.1973 -0.868456 22.7101 1.13234 11.9238 11.9186C1.13756 22.7049 -0.863239 38.1921 7.45493 46.5103C15.7731 54.8285 31.2603 52.8277 42.0466 42.0414Z" stroke="#949494" stroke-miterlimit="10"/>
<path d="M41.9974 41.9919C52.7993 31.19 54.8349 15.7122 46.5441 7.4214C38.2532 -0.869428 22.7755 1.1662 11.9736 11.9681C1.17171 22.77 -0.863915 38.2477 7.42692 46.5385C15.7177 54.8294 31.1955 52.7938 41.9974 41.9919Z" stroke="#959595" stroke-miterlimit="10"/>
<path d="M41.9547 41.9494C52.7761 31.128 54.8466 15.6535 46.5792 7.38606C38.3118 -0.881343 22.8372 1.18911 12.0158 12.0105C1.19438 22.832 -0.876074 38.3065 7.39133 46.5739C15.6587 54.8413 31.1333 52.7709 41.9547 41.9494Z" stroke="#969696" stroke-miterlimit="10"/>
<path d="M41.9123 41.907C52.7493 31.07 54.8515 15.6017 46.6075 7.35777C38.3635 -0.886198 22.8953 1.21591 12.0582 12.053C1.2212 22.89 -0.880908 38.3582 7.36306 46.6022C15.607 54.8462 31.0752 52.7441 41.9123 41.907Z" stroke="#979797" stroke-miterlimit="10"/>
<path d="M41.8626 41.8575C52.7153 31.0048 54.8522 15.5461 46.6356 7.32949C38.4189 -0.887141 22.9602 1.24979 12.1075 12.1025C1.25486 22.9551 -0.882074 38.4139 7.33456 46.6305C15.5512 54.8471 31.0099 52.7102 41.8626 41.8575Z" stroke="#989898" stroke-miterlimit="10"/>
<path d="M41.8202 41.8151C52.6885 30.9468 54.8571 15.4944 46.6639 7.30121C38.4707 -0.891993 23.0183 1.2766 12.15 12.1449C1.28168 23.0132 -0.886908 38.4656 7.30629 46.6588C15.4995 54.852 30.9519 52.6834 41.8202 41.8151Z" stroke="#999999" stroke-miterlimit="10"/>
<path d="M41.7778 41.7727C52.6617 30.8887 54.8619 15.4427 46.6922 7.27292C38.5224 -0.896845 23.0763 1.3034 12.1924 12.1873C1.3085 23.0712 -0.891743 38.5173 7.27803 46.6871C15.4478 54.8568 30.8939 52.6566 41.7778 41.7727Z" stroke="#9A9A9A" stroke-miterlimit="10"/>
<path d="M41.7283 41.7231C52.6317 30.8197 54.87 15.38 46.7275 7.23755C38.5851 -0.904881 23.1454 1.33336 12.2419 12.2368C1.33849 23.1402 -0.899744 38.58 7.24269 46.7224C15.3851 54.8648 30.8248 52.6266 41.7283 41.7231Z" stroke="#9B9B9B" stroke-miterlimit="10"/>
<path d="M41.6859 41.6807C52.6049 30.7617 54.8748 15.3283 46.7558 7.20927C38.6368 -0.909734 23.2034 1.36016 12.2844 12.2792C1.36532 23.1983 -0.904579 38.6317 7.21442 46.7507C15.3334 54.8697 30.7668 52.5998 41.6859 41.6807Z" stroke="#9C9C9C" stroke-miterlimit="10"/>
<path d="M41.6435 41.6383C52.5781 30.7036 54.8797 15.2766 46.7841 7.18101C38.6886 -0.914558 23.2615 1.387 12.3268 12.3217C1.39214 23.2564 -0.909414 38.6834 7.18616 46.779C15.2817 54.8746 30.7088 52.573 41.6435 41.6383Z" stroke="#9D9D9D" stroke-miterlimit="10"/>
<path d="M41.5942 41.5888C52.5445 30.6385 54.8809 15.2209 46.8127 7.1527C38.7445 -0.91553 23.3269 1.42085 12.3766 12.3712C1.42629 23.3215 -0.91009 38.739 7.15814 46.8073C15.2264 54.8755 30.6439 52.5391 41.5942 41.5888Z" stroke="#9E9E9E" stroke-miterlimit="10"/>
<path d="M41.5518 41.5464C52.5178 30.5805 54.8858 15.1692 46.841 7.12442C38.7962 -0.920383 23.385 1.44765 12.419 12.4136C1.45311 23.3795 -0.914925 38.7907 7.12987 46.8355C15.1747 54.8803 30.5859 52.5123 41.5518 41.5464Z" stroke="#9F9F9F" stroke-miterlimit="10"/>
<path d="M41.5092 41.504C52.4946 30.5185 54.8975 15.1104 46.8761 7.08907C38.8547 -0.932301 23.4467 1.47056 12.4612 12.456C1.47578 23.4415 -0.927084 38.8495 7.09428 46.8709C15.1157 54.8923 30.5237 52.4894 41.5092 41.504Z" stroke="#A0A0A0" stroke-miterlimit="10"/>
<path d="M41.4599 41.4545C52.461 30.4534 54.8987 15.0548 46.9047 7.06079C38.9106 -0.93324 23.5121 1.50445 12.511 12.5055C1.50993 23.5066 -0.92776 38.9052 7.06627 46.8992C15.0603 54.8932 30.4589 52.4555 41.4599 41.4545Z" stroke="#A1A1A1" stroke-miterlimit="10"/>
<path d="M41.4175 41.412C52.4342 30.3953 54.9036 15.0031 46.933 7.03251C38.9624 -0.938092 23.5701 1.53125 12.5534 12.5479C1.53675 23.5646 -0.932595 38.9569 7.03801 46.9275C15.0086 54.8981 30.4008 52.4287 41.4175 41.412Z" stroke="#A2A2A2" stroke-miterlimit="10"/>
<path d="M41.3678 41.3625C52.4001 30.3302 54.9043 14.9475 46.961 7.00423C39.0178 -0.939033 23.635 1.56514 12.6027 12.5974C1.57041 23.6298 -0.933759 39.0125 7.0095 46.9558C14.9528 54.899 30.3355 52.3949 41.3678 41.3625Z" stroke="#A3A3A3" stroke-miterlimit="10"/>
<path d="M41.3254 41.3201C52.3733 30.2722 54.9092 14.8958 46.9893 6.97594C39.0695 -0.943889 23.6931 1.59194 12.6452 12.6399C1.59723 23.6878 -0.938595 39.0642 6.98124 46.984C14.9011 54.9039 30.2775 52.3681 41.3254 41.3201Z" stroke="#A4A4A4" stroke-miterlimit="10"/>
<path d="M41.2828 41.2777C52.3502 30.2102 54.9209 14.837 47.0245 6.94057C39.1281 -0.955835 23.7548 1.61482 12.6874 12.6823C1.6199 23.7497 -0.950753 39.123 6.94565 47.0194C14.842 54.9158 30.2153 52.3451 41.2828 41.2777Z" stroke="#A5A5A5" stroke-miterlimit="10"/>
<path d="M41.2335 41.2282C52.3166 30.1451 54.9221 14.7814 47.053 6.91229C39.184 -0.956776 23.8202 1.6487 12.7371 12.7318C1.65404 23.8149 -0.95143 39.1786 6.91763 47.0477C14.7867 54.9167 30.1504 52.3113 41.2335 41.2282Z" stroke="#A6A6A6" stroke-miterlimit="10"/>
<path d="M41.1911 41.1858C52.2898 30.0871 54.927 14.7296 47.0813 6.884C39.2357 -0.961629 23.8783 1.6755 12.7796 12.7742C1.68087 23.8729 -0.956264 39.2303 6.88937 47.076C14.735 54.9216 30.0924 52.2845 41.1911 41.1858Z" stroke="#A7A7A7" stroke-miterlimit="10"/>
<path d="M41.1487 41.1433C52.263 30.029 54.9318 14.6779 47.1096 6.85572C39.2874 -0.966482 23.9363 1.70231 12.822 12.8166C1.70769 23.931 -0.9611 39.282 6.8611 47.1042C14.6833 54.9264 30.0344 52.2576 41.1487 41.1433Z" stroke="#A8A8A8" stroke-miterlimit="10"/>
<path d="M41.099 41.0938C52.2289 29.9639 54.9326 14.6223 47.1377 6.82744C39.3428 -0.967423 24.0012 1.73619 12.8713 12.8661C1.74135 23.9961 -0.962264 39.3377 6.8326 47.1325C14.6275 54.9274 29.9691 52.2238 41.099 41.0938Z" stroke="#A9A9A9" stroke-miterlimit="10"/>
<path d="M41.0568 41.0514C52.2063 29.902 54.9447 14.5635 47.1733 6.7921C39.4019 -0.979338 24.0634 1.7591 12.914 12.9086C1.7645 24.058 -0.973934 39.3965 6.7975 47.1679C14.5689 54.9393 29.9074 52.2009 41.0568 41.0514Z" stroke="#AAAAAA" stroke-miterlimit="10"/>
<path d="M41.0144 41.009C52.1795 29.8439 54.9496 14.5118 47.2016 6.76381C39.4536 -0.984194 24.1215 1.7859 12.9564 12.951C1.79133 24.1161 -0.978769 39.4482 6.76923 47.1962C14.5172 54.9442 29.8493 52.1741 41.0144 41.009Z" stroke="#ABABAB" stroke-miterlimit="10"/>
<path d="M40.9647 40.9595C52.1454 29.7788 54.9503 14.4562 47.2297 6.7355C39.509 -0.985165 24.1864 1.81976 13.0057 13.0005C1.82499 24.1812 -0.979934 39.5038 6.74073 47.2244C14.4614 54.9451 29.784 52.1402 40.9647 40.9595Z" stroke="#ACACAC" stroke-miterlimit="10"/>
<path d="M40.9223 40.9171C52.1186 29.7207 54.9552 14.4045 47.258 6.70725C39.5607 -0.989988 24.2445 1.84659 13.0481 13.0429C1.85181 24.2393 -0.984769 39.5555 6.71246 47.2527C14.4097 54.95 29.726 52.1134 40.9223 40.9171Z" stroke="#ADADAD" stroke-miterlimit="10"/>
<path d="M40.8731 40.8676C52.085 29.6556 54.9564 14.3488 47.2865 6.67894C39.6166 -0.990957 24.3099 1.88045 13.0979 13.0924C1.88596 24.3044 -0.985445 39.6111 6.68445 47.281C14.3543 54.9509 29.6611 52.0795 40.8731 40.8676Z" stroke="#AEAEAE" stroke-miterlimit="10"/>
<path d="M40.8304 40.8251C52.0619 29.5937 54.9681 14.2901 47.3216 6.64359C39.6752 -1.00287 24.3716 1.90335 13.1401 13.1348C1.90862 24.3663 -0.997604 39.6699 6.64886 47.3164C14.2953 54.9628 29.5989 52.0566 40.8304 40.8251Z" stroke="#AFAFAF" stroke-miterlimit="10"/>
<path d="M40.788 40.7827C52.0351 29.5356 54.973 14.2383 47.3499 6.61531C39.7269 -1.00773 24.4296 1.93016 13.1825 13.1773C1.93545 24.4244 -1.00244 39.7216 6.6206 47.3447C14.2436 54.9677 29.5409 52.0298 40.788 40.7827Z" stroke="#B0B0B0" stroke-miterlimit="10"/>
<path d="M40.7383 40.7332C52.001 29.4705 54.9737 14.1827 47.378 6.58703C39.7823 -1.00867 24.4945 1.96404 13.2318 13.2268C1.96911 24.4895 -1.0036 39.7772 6.59209 47.3729C14.1878 54.9686 29.4756 51.9959 40.7383 40.7332Z" stroke="#B1B1B1" stroke-miterlimit="10"/>
<path d="M40.6959 40.6908C51.9742 29.4124 54.9786 14.131 47.4063 6.55874C39.834 -1.01352 24.5526 1.99085 13.2743 13.2692C1.99593 24.5475 -1.00844 39.829 6.56383 47.4012C14.1361 54.9735 29.4175 51.9691 40.6959 40.6908Z" stroke="#B2B2B2" stroke-miterlimit="10"/>
<path d="M40.6535 40.6484C51.9474 29.3544 54.9835 14.0793 47.4346 6.53046C39.8858 -1.01838 24.6107 2.01765 13.3167 13.3116C2.02275 24.6056 -1.01327 39.8807 6.53556 47.4295C14.0844 54.9783 29.3595 51.9423 40.6535 40.6484Z" stroke="#B3B3B3" stroke-miterlimit="10"/>
<path d="M40.6042 40.5989C51.9138 29.2893 54.9847 14.0237 47.4632 6.50218C39.9417 -1.01932 24.6761 2.05153 13.3665 13.3611C2.0569 24.6707 -1.01395 39.9363 6.50755 47.4578C14.029 54.9793 29.2947 51.9085 40.6042 40.5989Z" stroke="#B4B4B4" stroke-miterlimit="10"/>
<path d="M40.5616 40.5564C51.8907 29.2273 54.9964 13.9649 47.4983 6.4668C40.0002 -1.03127 24.7378 2.07441 13.4087 13.4035C2.07957 24.7326 -1.02611 39.9951 6.47196 47.4931C13.97 54.9912 29.2325 51.8855 40.5616 40.5564Z" stroke="#B5B5B5" stroke-miterlimit="10"/>
<path d="M40.5192 40.514C51.8639 29.1693 55.0012 13.9132 47.5266 6.43855C40.052 -1.03609 24.7959 2.10124 13.4511 13.446C2.10639 24.7907 -1.03094 40.0468 6.44369 47.5214C13.9183 54.9961 29.1744 51.8588 40.5192 40.514Z" stroke="#B6B6B6" stroke-miterlimit="10"/>
<path d="M40.4699 40.4645C51.8303 29.1041 55.0024 13.8575 47.5552 6.41024C40.1079 -1.03706 24.8612 2.1351 13.5009 13.4954C2.14054 24.8558 -1.03162 40.1024 6.41568 47.5497C13.863 54.997 29.1096 51.8249 40.4699 40.4645Z" stroke="#B7B7B7" stroke-miterlimit="10"/>
<path d="M40.4275 40.4221C51.8035 29.0461 55.0073 13.8058 47.5835 6.38195C40.1596 -1.04191 24.9193 2.1619 13.5433 13.5379C2.16736 24.9138 -1.03645 40.1541 6.38741 47.578C13.8113 55.0019 29.0516 51.798 40.4275 40.4221Z" stroke="#B8B8B8" stroke-miterlimit="10"/>
<path d="M40.3778 40.3726C51.7694 28.981 55.008 13.7502 47.6115 6.35368C40.215 -1.04285 24.9842 2.19579 13.5926 13.5874C2.20102 24.979 -1.03762 40.2098 6.35891 47.6063C13.7554 55.0028 28.9862 51.7642 40.3778 40.3726Z" stroke="#B9B9B9" stroke-miterlimit="10"/>
<path d="M40.3356 40.3302C51.7468 28.919 55.0202 13.6914 47.6471 6.31833C40.274 -1.05477 25.0464 2.2187 13.6353 13.6298C2.22417 25.0409 -1.04929 40.2685 6.32381 47.6416C13.6969 55.0147 28.9245 51.7413 40.3356 40.3302Z" stroke="#BABABA" stroke-miterlimit="10"/>
<path d="M40.2932 40.2877C51.72 28.861 55.0251 13.6397 47.6754 6.29004C40.3258 -1.05962 25.1045 2.2455 13.6777 13.6722C2.251 25.099 -1.05412 40.3203 6.29554 47.6699C13.6452 55.0196 28.8665 51.7145 40.2932 40.2877Z" stroke="#BBBBBB" stroke-miterlimit="10"/>
<path d="M40.2435 40.2382C51.6859 28.7959 55.0258 13.5841 47.7035 6.26177C40.3812 -1.06056 25.1694 2.27938 13.727 13.7217C2.28465 25.1641 -1.05529 40.3759 6.26704 47.6982C13.5894 55.0206 28.8012 51.6806 40.2435 40.2382Z" stroke="#BCBCBC" stroke-miterlimit="10"/>
<path d="M40.2011 40.1958C51.6591 28.7378 55.0307 13.5324 47.7318 6.23348C40.4329 -1.06542 25.2274 2.30618 13.7695 13.7642C2.31148 25.2222 -1.06012 40.4276 6.23877 47.7265C13.5377 55.0254 28.7431 51.6538 40.2011 40.1958Z" stroke="#BDBDBD" stroke-miterlimit="10"/>
<path d="M40.1587 40.1534C51.6323 28.6798 55.0356 13.4807 47.7601 6.20519C40.4846 -1.07027 25.2855 2.33299 13.8119 13.8066C2.3383 25.2802 -1.06496 40.4793 6.21051 47.7548C13.486 55.0303 28.6851 51.627 40.1587 40.1534Z" stroke="#BEBEBE" stroke-miterlimit="10"/>
<path d="M40.1092 40.1039C51.6024 28.6108 55.0436 13.418 47.7955 6.16983C40.5473 -1.07831 25.3546 2.36295 13.8614 13.8561C2.36829 25.3492 -1.07296 40.542 6.17517 47.7901C13.4233 55.0383 28.6161 51.597 40.1092 40.1039Z" stroke="#BFBFBF" stroke-miterlimit="10"/>
<path d="M40.0668 40.0615C51.5756 28.5527 55.0485 13.3662 47.8238 6.14154C40.5991 -1.08316 25.4126 2.38975 13.9039 13.8985C2.39512 25.4073 -1.07779 40.5937 6.1469 47.8184C13.3716 55.0431 28.5581 51.5702 40.0668 40.0615Z" stroke="#C0C0C0" stroke-miterlimit="10"/>
<path d="M40.0244 40.019C51.5488 28.4947 55.0533 13.3145 47.8521 6.11325C40.6508 -1.08801 25.4707 2.41656 13.9463 13.9409C2.42194 25.4653 -1.08263 40.6454 6.11864 47.8467C13.3199 55.048 28.5 51.5434 40.0244 40.019Z" stroke="#C1C1C1" stroke-miterlimit="10"/>
<path d="M39.9747 39.9695C51.5147 28.4295 55.0541 13.2589 47.8801 6.08498C40.7062 -1.08895 25.5356 2.45044 13.9956 13.9904C2.4556 25.5304 -1.08379 40.7011 6.09014 47.875C13.2641 55.0489 28.4347 51.5095 39.9747 39.9695Z" stroke="#C2C2C2" stroke-miterlimit="10"/>
<path d="M39.9323 39.9271C51.4879 28.3715 55.0589 13.2072 47.9084 6.05669C40.758 -1.09381 25.5936 2.47724 14.038 14.0329C2.48242 25.5885 -1.08863 40.7528 6.06187 47.9033C13.2124 55.0538 28.3767 51.4827 39.9323 39.9271Z" stroke="#C3C3C3" stroke-miterlimit="10"/>
<path d="M39.8828 39.8776C51.4579 28.3025 55.067 13.1445 47.9438 6.02135C40.8207 -1.10181 25.6627 2.50723 14.0876 14.0824C2.51241 25.6575 -1.09663 40.8155 6.02653 47.9386C13.1497 55.0618 28.3077 51.4528 39.8828 39.8776Z" stroke="#C4C4C4" stroke-miterlimit="10"/>
<path d="M39.8404 39.8352C51.4312 28.2444 55.0719 13.0928 47.9721 5.99307C40.8724 -1.10666 25.7208 2.53403 14.13 14.1248C2.53923 25.7156 -1.10146 40.8672 5.99827 47.9669C13.098 55.0667 28.2496 51.426 39.8404 39.8352Z" stroke="#C5C5C5" stroke-miterlimit="10"/>
<path d="M39.798 39.7928C51.4044 28.1864 55.0767 13.0411 48.0004 5.96478C40.9241 -1.11152 25.7788 2.56084 14.1724 14.1672C2.56606 25.7736 -1.1063 40.9189 5.97 47.9952C13.0463 55.0715 28.1916 51.3992 39.798 39.7928Z" stroke="#C6C6C6" stroke-miterlimit="10"/>
<path d="M39.7488 39.7432C51.3708 28.1212 55.0779 12.9854 48.029 5.93647C40.98 -1.11249 25.8442 2.59469 14.2222 14.2167C2.60021 25.8387 -1.10698 40.9745 5.94199 48.0235C12.991 55.0724 28.1268 51.3653 39.7488 39.7432Z" stroke="#C7C7C7" stroke-miterlimit="10"/>
<path d="M39.7064 39.7009C51.344 28.0632 55.0828 12.9338 48.0573 5.90822C41.0318 -1.11731 25.9023 2.62153 14.2647 14.2592C2.62703 25.8968 -1.11181 41.0263 5.91372 48.0518C12.9393 55.0773 28.0687 51.3385 39.7064 39.7009Z" stroke="#C8C8C8" stroke-miterlimit="10"/>
<path d="M39.6637 39.6584C51.3208 28.0013 55.0945 12.8749 48.0924 5.87284C41.0903 -1.12926 25.964 2.6444 14.3068 14.3016C2.64969 25.9587 -1.12397 41.085 5.87813 48.0871C12.8802 55.0892 28.0065 51.3156 39.6637 39.6584Z" stroke="#C9C9C9" stroke-miterlimit="10"/>
<path d="M39.614 39.6089C51.2867 27.9361 55.0952 12.8193 48.1205 5.84457C41.1457 -1.1302 26.0289 2.67829 14.3561 14.3511C2.68335 26.0238 -1.12513 41.1406 5.84963 48.1154C12.8244 55.0902 27.9412 51.2817 39.614 39.6089Z" stroke="#CACACA" stroke-miterlimit="10"/>
<path d="M39.5716 39.5665C51.26 27.8781 55.1001 12.7676 48.1488 5.81628C41.1974 -1.13505 26.087 2.70509 14.3986 14.3935C2.71018 26.0819 -1.12997 41.1924 5.82136 48.1437C12.7727 55.095 27.8832 51.2549 39.5716 39.5665Z" stroke="#CBCBCB" stroke-miterlimit="10"/>
<path d="M39.5292 39.5241C51.2332 27.82 55.105 12.7159 48.1771 5.78799C41.2492 -1.13991 26.145 2.7319 14.441 14.4359C2.737 26.1399 -1.1348 41.2441 5.7931 48.172C12.721 55.0999 27.8252 51.2281 39.5292 39.5241Z" stroke="#CCCCCC" stroke-miterlimit="10"/>
<path d="M39.4799 39.4746C51.1996 27.7549 55.1062 12.6603 48.2056 5.75972C41.3051 -1.14085 26.2104 2.76578 14.4908 14.4854C2.77115 26.205 -1.13548 41.2997 5.76508 48.2003C12.6656 55.1008 27.7603 51.1942 39.4799 39.4746Z" stroke="#CDCDCD" stroke-miterlimit="10"/>
<path d="M39.4373 39.4321C51.1764 27.693 55.1179 12.6015 48.2408 5.72434C41.3636 -1.1528 26.2721 2.78866 14.533 14.5278C2.79381 26.267 -1.14764 41.3585 5.72949 48.2356C12.6066 55.1127 27.6981 51.1713 39.4373 39.4321Z" stroke="#CECECE" stroke-miterlimit="10"/>
<path d="M39.3949 39.3897C51.1496 27.6349 55.1228 12.5498 48.2691 5.69608C41.4154 -1.15762 26.3302 2.81549 14.5754 14.5703C2.82064 26.3251 -1.15247 41.4102 5.70123 48.2639C12.5549 55.1176 27.6401 51.1445 39.3949 39.3897Z" stroke="#CFCFCF" stroke-miterlimit="10"/>
<path d="M39.3456 39.3402C51.116 27.5698 55.124 12.4941 48.2976 5.66778C41.4712 -1.15859 26.3956 2.84935 14.6252 14.6197C2.85478 26.3902 -1.15315 41.4658 5.67321 48.2922C12.4996 55.1185 27.5752 51.1106 39.3456 39.3402Z" stroke="#D0D0D0" stroke-miterlimit="10"/>
<path d="M39.3032 39.2978C51.0893 27.5117 55.1288 12.4424 48.3259 5.63949C41.523 -1.16344 26.4537 2.87615 14.6676 14.6622C2.88161 26.4482 -1.15799 41.5175 5.64495 48.3205C12.4479 55.1234 27.5172 51.0838 39.3032 39.2978Z" stroke="#D1D1D1" stroke-miterlimit="10"/>
<path d="M39.2535 39.2483C51.0552 27.4466 55.1296 12.3868 48.354 5.61121C41.5784 -1.16439 26.5186 2.91004 14.7169 14.7117C2.91527 26.5133 -1.15915 41.5731 5.61645 48.3487C12.392 55.1243 27.4519 51.0499 39.2535 39.2483Z" stroke="#D2D2D2" stroke-miterlimit="10"/>
<path d="M39.2113 39.2059C51.0325 27.3847 55.1418 12.328 48.3896 5.57587C41.6374 -1.1763 26.5808 2.93294 14.7596 14.7541C2.93842 26.5753 -1.17082 41.6319 5.58135 48.3841C12.3335 55.1363 27.3902 51.027 39.2113 39.2059Z" stroke="#D3D3D3" stroke-miterlimit="10"/>
<path d="M39.1689 39.1634C51.0057 27.3266 55.1466 12.2763 48.4179 5.54758C41.6892 -1.18116 26.6388 2.95975 14.802 14.7965C2.96524 26.6333 -1.17566 41.6837 5.55308 48.4124C12.2818 55.1411 27.3321 51.0002 39.1689 39.1634Z" stroke="#D4D4D4" stroke-miterlimit="10"/>
<path d="M39.1192 39.1139C50.9716 27.2615 55.1474 12.2207 48.446 5.5193C41.7446 -1.18209 26.7037 2.99363 14.8513 14.846C2.9989 26.6985 -1.17682 41.7393 5.52458 48.4407C12.226 55.1421 27.2668 50.9664 39.1192 39.1139Z" stroke="#D5D5D5" stroke-miterlimit="10"/>
<path d="M39.0768 39.0715C50.9448 27.2035 55.1522 12.169 48.4743 5.49102C41.7963 -1.18695 26.7618 3.02043 14.8938 14.8885C3.02573 26.7565 -1.18166 41.791 5.49631 48.469C12.1743 55.1469 27.2088 50.9396 39.0768 39.0715Z" stroke="#D6D6D6" stroke-miterlimit="10"/>
<path d="M39.0344 39.0291C50.9181 27.1454 55.1571 12.1173 48.5026 5.46273C41.848 -1.1918 26.8199 3.04724 14.9362 14.9309C3.05255 26.8145 -1.18649 41.8427 5.46805 48.4973C12.1226 55.1518 27.1508 50.9127 39.0344 39.0291Z" stroke="#D7D7D7" stroke-miterlimit="10"/>
<path d="M38.9847 38.9796C50.884 27.0803 55.1578 12.0617 48.5306 5.43445C41.9034 -1.19274 26.8848 3.08112 14.9855 14.9804C3.08621 26.8797 -1.18765 41.8983 5.43954 48.5255C12.0667 55.1527 27.0854 50.8789 38.9847 38.9796Z" stroke="#D8D8D8" stroke-miterlimit="10"/>
<path d="M38.9425 38.9372C50.8613 27.0183 55.17 12.0028 48.5662 5.39908C41.9625 -1.20469 26.947 3.104 15.0282 15.0228C3.10936 26.9416 -1.19932 41.9571 5.40444 48.5609C12.0082 55.1646 27.0237 50.856 38.9425 38.9372Z" stroke="#D9D9D9" stroke-miterlimit="10"/>
<path d="M38.9001 38.8947C50.8345 26.9603 55.1749 11.9511 48.5945 5.37079C42.0142 -1.20955 27.005 3.1308 15.0706 15.0652C3.13619 26.9996 -1.20416 42.0088 5.37617 48.5892C11.9565 55.1695 26.9657 50.8291 38.9001 38.8947Z" stroke="#DADADA" stroke-miterlimit="10"/>
<path d="M38.8504 38.8452C50.8004 26.8952 55.1756 11.8955 48.6226 5.34251C42.0696 -1.21048 27.0699 3.16469 15.1199 15.1147C3.16984 27.0648 -1.20532 42.0645 5.34767 48.6174C11.9007 55.1704 26.9003 50.7953 38.8504 38.8452Z" stroke="#DBDBDB" stroke-miterlimit="10"/>
<path d="M38.808 38.8028C50.7736 26.8371 55.1805 11.8438 48.6509 5.31423C42.1213 -1.21534 27.128 3.19149 15.1623 15.1572C3.19667 27.1228 -1.21016 42.1162 5.31941 48.6457C11.849 55.1753 26.8423 50.7685 38.808 38.8028Z" stroke="#DCDCDC" stroke-miterlimit="10"/>
<path d="M38.7588 38.7533C50.74 26.772 55.1817 11.7882 48.6795 5.28595C42.1772 -1.21628 27.1934 3.22538 15.2121 15.2067C3.23082 27.1879 -1.21084 42.1718 5.29139 48.674C11.7936 55.1763 26.7775 50.7346 38.7588 38.7533Z" stroke="#DDDDDD" stroke-miterlimit="10"/>
<path d="M38.7161 38.7109C50.7169 26.7101 55.1934 11.7294 48.7146 5.25061C42.2358 -1.22819 27.2551 3.24828 15.2543 15.2491C3.25348 27.2499 -1.22299 42.2306 5.2558 48.7094C11.7346 55.1882 26.7153 50.7117 38.7161 38.7109Z" stroke="#DEDEDE" stroke-miterlimit="10"/>
<path d="M38.6737 38.6685C50.6901 26.652 55.1983 11.6777 48.7429 5.22232C42.2875 -1.23305 27.3132 3.27509 15.2967 15.2915C3.28031 27.308 -1.22783 42.2823 5.22754 48.7377C11.6829 55.193 26.6573 50.6849 38.6737 38.6685Z" stroke="#DFDFDF" stroke-miterlimit="10"/>
<path d="M38.6245 38.6189C50.6565 26.5869 55.1995 11.622 48.7714 5.19401C42.3434 -1.23402 27.3786 3.30894 15.3465 15.341C3.31445 27.373 -1.22851 42.3379 5.19952 48.7659C11.6276 55.194 26.5924 50.651 38.6245 38.6189Z" stroke="#E0E0E0" stroke-miterlimit="10"/>
<path d="M38.5821 38.5766C50.6297 26.5289 55.2043 11.5704 48.7997 5.16576C42.3951 -1.23884 27.4366 3.33577 15.3889 15.3835C3.34128 27.4311 -1.23334 42.3896 5.17126 48.7942C11.5759 55.1988 26.5344 50.6242 38.5821 38.5766Z" stroke="#E1E1E1" stroke-miterlimit="10"/>
<path d="M38.5392 38.5341C50.6024 26.4708 55.2087 11.5186 48.8276 5.13744C42.4464 -1.24373 27.4942 3.36255 15.4309 15.4258C3.36761 27.4891 -1.23866 42.4413 5.1425 48.8225C11.5237 55.2037 26.4759 50.5974 38.5392 38.5341Z" stroke="#E2E2E2" stroke-miterlimit="10"/>
<path d="M38.4897 38.4846C50.5725 26.4018 55.2168 11.4559 48.8629 5.1021C42.5091 -1.25173 27.5632 3.39254 15.4804 15.4754C3.3976 27.5582 -1.24666 42.504 5.10717 48.8579C11.461 55.2117 26.4069 50.5674 38.4897 38.4846Z" stroke="#E3E3E3" stroke-miterlimit="10"/>
<path d="M38.4473 38.4422C50.5457 26.3437 55.2216 11.4042 48.8912 5.07382C42.5608 -1.25658 27.6213 3.41934 15.5229 15.5178C3.42442 27.6162 -1.2515 42.5558 5.0789 48.8862C11.4093 55.2165 26.3488 50.5406 38.4473 38.4422Z" stroke="#E4E4E4" stroke-miterlimit="10"/>
<path d="M38.4049 38.3998C50.5189 26.2857 55.2265 11.3525 48.9195 5.04553C42.6126 -1.26144 27.6794 3.44615 15.5653 15.5602C3.45125 27.6743 -1.25633 42.6075 5.05063 48.9144C11.3576 55.2214 26.2908 50.5138 38.4049 38.3998Z" stroke="#E5E5E5" stroke-miterlimit="10"/>
<path d="M38.3556 38.3503C50.4853 26.2206 55.2277 11.2969 48.9481 5.01725C42.6685 -1.26238 27.7448 3.48003 15.6151 15.6097C3.48539 27.7394 -1.25701 42.6631 5.02262 48.9427C11.3023 55.2224 26.226 50.48 38.3556 38.3503Z" stroke="#E6E6E6" stroke-miterlimit="10"/>
<path d="M38.3132 38.3078C50.4585 26.1625 55.2326 11.2452 48.9764 4.98897C42.7202 -1.26723 27.8028 3.50683 15.6575 15.6521C3.51222 27.7974 -1.26184 42.7148 4.99435 48.971C11.2506 55.2272 26.1679 50.4531 38.3132 38.3078Z" stroke="#E7E7E7" stroke-miterlimit="10"/>
<path d="M38.2637 38.2583C50.4286 26.0935 55.2406 11.1825 49.0118 4.9536C42.7829 -1.27527 27.8719 3.53679 15.707 15.7016C3.54221 27.8665 -1.26985 42.7775 4.95902 49.0063C11.1879 55.2352 26.0989 50.4232 38.2637 38.2583Z" stroke="#E8E8E8" stroke-miterlimit="10"/>
<path d="M38.2213 38.2159C50.4018 26.0354 55.2455 11.1307 49.0401 4.92531C42.8346 -1.28012 27.9299 3.56359 15.7495 15.744C3.56903 27.9245 -1.27468 42.8292 4.93075 49.0346C11.1362 55.2401 26.0409 50.3964 38.2213 38.2159Z" stroke="#E9E9E9" stroke-miterlimit="10"/>
<path d="M38.1789 38.1735C50.375 25.9774 55.2504 11.0791 49.0684 4.89706C42.8864 -1.28494 27.988 3.59043 15.7919 15.7865C3.59586 27.9826 -1.27951 42.8809 4.90248 49.0629C11.0845 55.2449 25.9829 50.3696 38.1789 38.1735Z" stroke="#EAEAEA" stroke-miterlimit="10"/>
<path d="M38.1292 38.124C50.3409 25.9123 55.2511 11.0234 49.0964 4.86875C42.9418 -1.28591 28.0529 3.62428 15.8412 15.836C3.62952 28.0477 -1.28068 42.9365 4.87398 49.0912C11.0286 55.2459 25.9175 50.3357 38.1292 38.124Z" stroke="#EBEBEB" stroke-miterlimit="10"/>
<path d="M38.0868 38.0816C50.3141 25.8542 55.256 10.9717 49.1247 4.84046C42.9935 -1.29077 28.111 3.65109 15.8837 15.8784C3.65634 28.1057 -1.28551 42.9883 4.84572 49.1195C10.9769 55.2507 25.8595 50.3089 38.0868 38.0816Z" stroke="#ECECEC" stroke-miterlimit="10"/>
<path d="M38.0446 38.0391C50.2915 25.7923 55.2682 10.9129 49.1604 4.80512C43.0526 -1.30268 28.1732 3.67399 15.9263 15.9208C3.67949 28.1677 -1.29719 43.0471 4.81061 49.1549C10.9184 55.2627 25.7978 50.286 38.0446 38.0391Z" stroke="#EDEDED" stroke-miterlimit="10"/>
<path d="M37.9949 37.9896C50.2574 25.7272 55.2689 10.8573 49.1884 4.77684C43.108 -1.30363 28.2381 3.70788 15.9756 15.9703C3.71315 28.2328 -1.29835 43.1027 4.78211 49.1831C10.8626 55.2636 25.7325 50.2521 37.9949 37.9896Z" stroke="#EEEEEE" stroke-miterlimit="10"/>
<path d="M37.9525 37.9472C50.2306 25.6691 55.2737 10.8056 49.2167 4.74856C43.1597 -1.30848 28.2961 3.73468 16.0181 16.0128C3.73997 28.2908 -1.30318 43.1544 4.75385 49.2114C10.8109 55.2685 25.6744 50.2253 37.9525 37.9472Z" stroke="#EFEFEF" stroke-miterlimit="10"/>
<path d="M37.9101 37.9048C50.2038 25.6111 55.2786 10.7539 49.245 4.72027C43.2114 -1.31333 28.3542 3.76149 16.0605 16.0552C3.7668 28.3489 -1.30802 43.2061 4.72558 49.2397C10.7592 55.2733 25.6164 50.1985 37.9101 37.9048Z" stroke="#F0F0F0" stroke-miterlimit="10"/>
<path d="M37.8604 37.8553C50.1697 25.546 55.2794 10.6983 49.2731 4.69199C43.2668 -1.31427 28.4191 3.79537 16.1098 16.1047C3.80046 28.414 -1.30918 43.2617 4.69708 49.268C10.7033 55.2743 25.5511 50.1646 37.8604 37.8553Z" stroke="#F1F1F1" stroke-miterlimit="10"/>
<path d="M37.8182 37.8128C50.1471 25.484 55.2915 10.6394 49.3087 4.65661C43.3259 -1.32622 28.4813 3.81825 16.1525 16.1471C3.82361 28.4759 -1.32085 43.3205 4.66198 49.3033C10.6448 55.2862 25.4894 50.1417 37.8182 37.8128Z" stroke="#F2F2F2" stroke-miterlimit="10"/>
<path d="M37.7758 37.7704C50.1203 25.4259 55.2964 10.5877 49.337 4.62833C43.3776 -1.33107 28.5394 3.84505 16.1949 16.1895C3.85043 28.534 -1.32569 43.3722 4.63371 49.3316C10.5931 55.291 25.4313 50.1149 37.7758 37.7704Z" stroke="#F3F3F3" stroke-miterlimit="10"/>
<path d="M37.7261 37.7209C50.0862 25.3608 55.2971 10.5321 49.3651 4.60005C43.433 -1.33202 28.6043 3.87893 16.2442 16.239C3.88409 28.5991 -1.32685 43.4278 4.60521 49.3599C10.5373 55.292 25.366 50.081 37.7261 37.7209Z" stroke="#F4F4F4" stroke-miterlimit="10"/>
<path d="M37.6837 37.6785C50.0594 25.3028 55.302 10.4804 49.3934 4.57177C43.4847 -1.33687 28.6623 3.90574 16.2866 16.2815C3.91092 28.6572 -1.33169 43.4796 4.57694 49.3882C10.4856 55.2968 25.308 50.0542 37.6837 37.6785Z" stroke="#F5F5F5" stroke-miterlimit="10"/>
<path d="M37.6345 37.629C50.0258 25.2377 55.3032 10.4248 49.4219 4.54349C43.5406 -1.33781 28.7277 3.93962 16.3364 16.331C3.94506 28.7223 -1.33237 43.5352 4.54893 49.4165C10.4302 55.2978 25.2431 50.0204 37.6345 37.629Z" stroke="#F6F6F6" stroke-miterlimit="10"/>
<path d="M37.5918 37.5866C50.0027 25.1757 55.3149 10.366 49.457 4.50814C43.5992 -1.34972 28.7895 3.96253 16.3786 16.3734C3.96773 28.7843 -1.34452 43.594 4.51334 49.4518C10.3712 55.3097 25.1809 49.9975 37.5918 37.5866Z" stroke="#F7F7F7" stroke-miterlimit="10"/>
<path d="M37.5494 37.5442C49.9759 25.1177 55.3198 10.3143 49.4853 4.47986C43.6509 -1.35458 28.8475 3.98934 16.421 16.4158C3.99455 28.8423 -1.34936 43.6457 4.48507 49.4801C10.3195 55.3146 25.1229 49.9706 37.5494 37.5442Z" stroke="#F8F8F8" stroke-miterlimit="10"/>
<path d="M37.5002 37.4946C49.9423 25.0525 55.321 10.2586 49.5139 4.45155C43.7068 -1.35555 28.9129 4.02319 16.4708 16.4653C4.0287 28.9074 -1.35004 43.7013 4.45706 49.5084C10.2642 55.3155 25.0581 49.9367 37.5002 37.4946Z" stroke="#F9F9F9" stroke-miterlimit="10"/>
<path d="M37.4578 37.4523C49.9155 24.9945 55.3259 10.207 49.5422 4.42329C43.7585 -1.36037 28.971 4.05002 16.5132 16.5077C4.05552 28.9655 -1.35487 43.753 4.42879 49.5367C10.2125 55.3204 25 49.91 37.4578 37.4523Z" stroke="#FAFAFA" stroke-miterlimit="10"/>
<path d="M37.4149 37.4098C49.8882 24.9365 55.3303 10.1552 49.57 4.39501C43.8098 -1.36522 29.0285 4.07683 16.5552 16.5502C4.08186 29.0235 -1.36019 43.8048 4.40004 49.565C10.1603 55.3252 24.9415 49.8832 37.4149 37.4098Z" stroke="#FBFBFB" stroke-miterlimit="10"/>
<path d="M37.3654 37.3603C49.8582 24.8674 55.3383 10.0925 49.6054 4.35963C43.8725 -1.37326 29.0976 4.10678 16.6047 16.5997C4.11185 29.0925 -1.36819 43.8674 4.3647 49.6003C10.0976 55.3332 24.8725 49.8532 37.3654 37.3603Z" stroke="#FCFCFC" stroke-miterlimit="10"/>
<path d="M37.323 37.3179C49.8315 24.8094 55.3432 10.0408 49.6337 4.33135C43.9242 -1.37811 29.1557 4.13359 16.6472 16.6421C4.13867 29.1506 -1.37303 43.9191 4.33644 49.6286C10.0459 55.3381 24.8145 49.8264 37.323 37.3179Z" stroke="#FDFDFD" stroke-miterlimit="10"/>
<path d="M37.2806 37.2755C49.8047 24.7513 55.348 9.9891 49.662 4.30307C43.976 -1.38297 29.2137 4.16039 16.6896 16.6845C4.1655 29.2086 -1.37786 43.9709 4.30817 49.6569C9.9942 55.3429 24.7564 49.7996 37.2806 37.2755Z" stroke="#FEFEFE" stroke-miterlimit="10"/>
<path d="M37.2313 37.226C49.7711 24.6862 55.3493 9.93349 49.6906 4.27479C44.0319 -1.38391 29.2791 4.19428 16.7394 16.734C4.19964 29.2737 -1.37854 44.0265 4.28016 49.6852C9.93885 55.3439 24.6916 49.7657 37.2313 37.226Z" stroke="white" stroke-miterlimit="10"/>
<path d="M104.84 25.95H86.5201C84.5101 25.95 82.8701 24.31 82.8701 22.3V21.84C82.8701 19.83 84.5101 18.19 86.5201 18.19H111.12V12.94H86.5201C81.6101 12.94 77.6201 16.93 77.6201 21.84V22.3C77.6201 27.21 81.6101 31.2 86.5201 31.2H104.84C106.85 31.2 108.49 32.84 108.49 34.85C108.49 36.86 106.85 38.5 104.84 38.5H78.8801V43.75H104.84C109.75 43.75 113.74 39.76 113.74 34.85C113.74 29.94 109.75 25.95 104.84 25.95Z" fill="white"/>
<path d="M146.14 23.46H125.33L122.16 27.15V23.45H116.91V52.85H122.16V43.74H146.14C150 43.74 153.14 40.6 153.14 36.74V30.45C153.14 26.59 150 23.45 146.14 23.45V23.46ZM147.89 36.75C147.89 37.71 147.11 38.5 146.14 38.5H122.16V28.71H146.14C147.1 28.71 147.89 29.49 147.89 30.46V36.75Z" fill="white"/>
<path d="M189.88 27.12L186.74 23.46H163.3C159.44 23.46 156.3 26.6 156.3 30.46V36.75C156.3 40.61 159.44 43.75 163.3 43.75H181.12L184.62 39.66L184.64 39.64V43.75H192.56V38.5H189.87V27.12H189.88ZM184.64 34.19V38.5H163.32C162.36 38.5 161.57 37.72 161.57 36.75V30.46C161.57 29.5 162.35 28.71 163.32 28.71H184.64V34.19Z" fill="white"/>
<path d="M381.55 23.46H369.8L366.7 27.07V23.46H361.21V43.75H366.46V28.71H381.54C382.5 28.71 383.29 29.49 383.29 30.46V43.75H388.54V30.46C388.54 26.6 385.4 23.46 381.54 23.46H381.55Z" fill="white"/>
<path d="M231.65 23.47H226.4V43.75H231.65V23.47Z" fill="white"/>
<path d="M231.65 15.91H226.4V20.48H231.65V15.91Z" fill="white"/>
<path d="M358.04 23.47H352.79V43.75H358.04V23.47Z" fill="white"/>
<path d="M358.04 15.91H352.79V20.48H358.04V15.91Z" fill="white"/>
<path d="M234.83 20.89V36.39C234.83 40.45 238.44 43.75 242.87 43.75H270.79V39.38H242.87C240.85 39.38 239.21 38.04 239.21 36.39V20.89C239.21 18.92 241.15 17.31 243.54 17.31H270.8V12.94H243.54C238.74 12.94 234.84 16.51 234.84 20.89H234.83Z" fill="white"/>
<path d="M303.18 23.46H282.12L279.22 26.84V23.46V12.95H273.97V43.75H279.22V28.71H303.18C304.14 28.71 304.93 29.49 304.93 30.46V43.75H310.18V30.46C310.18 26.6 307.04 23.46 303.18 23.46Z" fill="white"/>
<path d="M200.96 26.5V23.12V15.48H195.71V35.07C195.71 39.86 199.61 43.75 204.39 43.75H223.25V38.5H204.39C202.5 38.5 200.95 36.96 200.95 35.06V28.7H223.99V23.45H203.56L200.96 26.49V26.5Z" fill="white"/>
<path d="M346.93 34.19V27.15L343.77 23.47H320.35C316.49 23.47 313.35 26.61 313.35 30.47V36.75C313.35 40.61 316.49 43.75 320.35 43.75H338.17L341.69 39.64V43.75H349.61V38.5H346.92V34.19H346.93ZM341.68 34.19V38.5H320.36C319.4 38.5 318.61 37.72 318.61 36.75V30.47C318.61 29.51 319.4 28.72 320.36 28.72H341.68V34.19Z" fill="white"/>
</g>
<defs>
<clipPath id="clip0_20_277">
<rect width="388.55" height="53.96" fill="white"/>
</clipPath>
</defs>
</svg>
